<svg width="24" height="24" viewBox="0 0 24 24" fill="none" xmlns="http://www.w3.org/2000/svg">
<path d="M17 5.31701C17.925 5.15001 18.894 5.05301 19.956 5.01701C20.524 4.99801 21 5.44801 21 6.01601V17.853C21 18.395 20.567 18.843 20.026 18.851C16.934 18.898 14.606 19.468 12 21C9.394 19.468 7.066 18.898 3.974 18.852C3.433 18.844 3 18.395 3 17.853V6.01601C3 5.45701 3.459 4.99801 4.017 5.01601C7.088 5.11501 9.406 5.69301 12 7.14601" stroke="#4200FF" stroke-width="1.5" stroke-linecap="round" stroke-linejoin="round"/>
<path fill-rule="evenodd" clip-rule="evenodd" d="M17 15.238V3.012C17 2.283 16.234 1.774 15.583 2.101C13.827 2.981 12.347 4.77 12 6.612V21C12.396 18.901 14.261 16.871 16.331 16.176C16.733 16.041 17 15.662 17 15.238Z" stroke="#4200FF" stroke-width="1.5" stroke-linecap="round" stroke-linejoin="round"/>
</svg>
