<svg width="434" height="502" viewBox="0 0 434 502" fill="none" xmlns="http://www.w3.org/2000/svg">
<circle cx="386.588" cy="455.5" r="46.5" fill="#4200FF"/>
<path d="M11.69 469.413C9.58122 469.413 7.73603 469.057 6.15444 468.347C4.59577 467.636 3.39239 466.628 2.54429 465.321C1.71912 464.015 1.30653 462.467 1.30653 460.679V460.232C1.30653 458.422 1.71912 456.852 2.54429 455.522C3.39239 454.193 4.59577 453.173 6.15444 452.462C7.73603 451.729 9.58122 451.362 11.69 451.362C13.6383 451.362 15.3804 451.694 16.9161 452.359C18.4748 453.001 19.6782 453.906 20.5263 455.075C21.3973 456.221 21.8328 457.539 21.8328 459.029V459.167H16.7098V459.029C16.7098 458.112 16.2399 457.367 15.3001 456.794C14.3833 456.198 13.1799 455.9 11.69 455.9C9.9938 455.9 8.69873 456.279 7.80479 457.035C6.91085 457.768 6.46388 458.846 6.46388 460.267V460.645C6.46388 462.02 6.91085 463.075 7.80479 463.808C8.69873 464.519 9.9938 464.874 11.69 464.874C13.2028 464.874 14.4177 464.599 15.3345 464.049C16.2514 463.476 16.7098 462.719 16.7098 461.78V461.642H21.8328V461.78C21.8328 463.293 21.4087 464.633 20.5606 465.802C19.7355 466.949 18.555 467.842 17.0193 468.484C15.5064 469.103 13.73 469.413 11.69 469.413ZM34.861 469.413C32.7064 469.413 30.8383 469.069 29.2567 468.381C27.6751 467.671 26.4603 466.662 25.6122 465.355C24.7641 464.026 24.34 462.467 24.34 460.679V460.232C24.34 458.399 24.7526 456.817 25.5778 455.488C26.4259 454.158 27.6407 453.138 29.2223 452.428C30.8039 451.717 32.6835 451.362 34.861 451.362C37.0156 451.362 38.8723 451.717 40.431 452.428C41.9896 453.138 43.1815 454.158 44.0067 455.488C44.8548 456.817 45.2789 458.399 45.2789 460.232V460.679C45.2789 462.467 44.8548 464.026 44.0067 465.355C43.1815 466.662 41.9896 467.671 40.431 468.381C38.8723 469.069 37.0156 469.413 34.861 469.413ZM34.8266 464.874C36.4999 464.874 37.795 464.507 38.7118 463.774C39.6516 463.04 40.1215 461.997 40.1215 460.645V460.267C40.1215 458.869 39.6631 457.791 38.7462 457.035C37.8294 456.279 36.5228 455.9 34.8266 455.9C33.1075 455.9 31.7895 456.279 30.8727 457.035C29.9558 457.768 29.4974 458.846 29.4974 460.267V460.645C29.4974 461.997 29.9558 463.04 30.8727 463.774C31.8125 464.507 33.1304 464.874 34.8266 464.874ZM66.8906 460.232C68.5639 460.966 69.4005 462.158 69.4005 463.808V464.152C69.4005 465.711 68.7816 466.914 67.5439 467.762C66.3061 468.587 64.5297 469 62.2146 469H49.0805V451.774H61.6989C64.0139 451.774 65.8018 452.187 67.0625 453.012C68.3232 453.837 68.9535 455.018 68.9535 456.554V456.897C68.9535 458.387 68.2659 459.499 66.8906 460.232ZM54.066 455.419V458.582H61.355C62.1573 458.582 62.7647 458.456 63.1773 458.204C63.5899 457.952 63.7962 457.597 63.7962 457.138V456.794C63.7962 455.877 62.9825 455.419 61.355 455.419H54.066ZM64.2775 463.533C64.2775 463.075 64.0598 462.719 63.6243 462.467C63.2117 462.215 62.6157 462.089 61.8364 462.089H54.066V465.355H61.8364C63.4638 465.355 64.2775 464.863 64.2775 463.877V463.533ZM84.0804 451.362C86.0975 451.362 87.8625 451.729 89.3753 452.462C90.8881 453.173 92.0457 454.204 92.8479 455.556C93.6731 456.886 94.0857 458.433 94.0857 460.198V460.542C94.0857 462.307 93.6731 463.866 92.8479 465.218C92.0228 466.547 90.8538 467.579 89.3409 468.312C87.851 469.046 86.0975 469.413 84.0804 469.413C81.88 469.413 80.0118 468.851 78.4761 467.728V474.845H73.4907V451.774H78.1323L78.2698 453.253C79.8972 451.992 81.8341 451.362 84.0804 451.362ZM88.9283 460.198C88.9283 458.846 88.4584 457.791 87.5187 457.035C86.5789 456.279 85.2723 455.9 83.5991 455.9C82.4988 455.9 81.4903 456.072 80.5734 456.416C79.6795 456.737 78.9804 457.195 78.4761 457.791V462.949C79.0033 463.545 79.7139 464.015 80.6078 464.358C81.5247 464.702 82.5218 464.874 83.5991 464.874C85.2723 464.874 86.5789 464.496 87.5187 463.739C88.4584 462.983 88.9283 461.917 88.9283 460.542V460.198ZM117.155 461.848H101.82C101.981 462.926 102.508 463.751 103.402 464.324C104.296 464.897 105.499 465.184 107.012 465.184C108.387 465.184 109.511 465 110.382 464.633C111.253 464.267 111.757 463.762 111.894 463.121H117.121C116.868 465.138 115.86 466.696 114.095 467.797C112.353 468.874 109.992 469.413 107.012 469.413C104.903 469.413 103.07 469.069 101.511 468.381C99.9523 467.671 98.7603 466.662 97.9352 465.355C97.11 464.049 96.6974 462.513 96.6974 460.748V460.095C96.6974 458.307 97.11 456.76 97.9352 455.453C98.7833 454.124 99.9752 453.115 101.511 452.428C103.07 451.717 104.903 451.362 107.012 451.362C110.221 451.362 112.708 452.13 114.473 453.665C116.261 455.178 117.155 457.31 117.155 460.061V461.848ZM106.978 455.522C105.648 455.522 104.548 455.763 103.677 456.244C102.806 456.725 102.233 457.402 101.958 458.273H111.894C111.619 457.402 111.058 456.725 110.21 456.244C109.362 455.763 108.284 455.522 106.978 455.522ZM147.339 451.774V469H142.526V456.829L141.666 458.754L136.371 469H131.936L126.675 458.754L125.781 456.794V458.892L125.816 469H120.968V451.774H128.051L134.171 463.877L140.256 451.774H147.339ZM171.616 461.848H156.281C156.442 462.926 156.969 463.751 157.863 464.324C158.757 464.897 159.96 465.184 161.473 465.184C162.849 465.184 163.972 465 164.843 464.633C165.714 464.267 166.218 463.762 166.356 463.121H171.582C171.329 465.138 170.321 466.696 168.556 467.797C166.814 468.874 164.453 469.413 161.473 469.413C159.364 469.413 157.531 469.069 155.972 468.381C154.413 467.671 153.221 466.662 152.396 465.355C151.571 464.049 151.159 462.513 151.159 460.748V460.095C151.159 458.307 151.571 456.76 152.396 455.453C153.244 454.124 154.436 453.115 155.972 452.428C157.531 451.717 159.364 451.362 161.473 451.362C164.682 451.362 167.169 452.13 168.934 453.665C170.722 455.178 171.616 457.31 171.616 460.061V461.848ZM161.439 455.522C160.109 455.522 159.009 455.763 158.138 456.244C157.267 456.725 156.694 457.402 156.419 458.273H166.356C166.08 457.402 165.519 456.725 164.671 456.244C163.823 455.763 162.745 455.522 161.439 455.522ZM180.414 451.774V458.17H190.11V451.774H195.096V469H190.11V462.536H180.414V469H175.429V451.774H180.414ZM205.093 451.774V458.17H214.789V451.774H219.774V469H214.789V462.536H205.093V469H200.108V451.774H205.093ZM234.104 469.413C231.949 469.413 230.081 469.069 228.5 468.381C226.918 467.671 225.703 466.662 224.855 465.355C224.007 464.026 223.583 462.467 223.583 460.679V460.232C223.583 458.399 223.996 456.817 224.821 455.488C225.669 454.158 226.884 453.138 228.465 452.428C230.047 451.717 231.927 451.362 234.104 451.362C236.259 451.362 238.115 451.717 239.674 452.428C241.233 453.138 242.425 454.158 243.25 455.488C244.098 456.817 244.522 458.399 244.522 460.232V460.679C244.522 462.467 244.098 464.026 243.25 465.355C242.425 466.662 241.233 467.671 239.674 468.381C238.115 469.069 236.259 469.413 234.104 469.413ZM234.07 464.874C235.743 464.874 237.038 464.507 237.955 463.774C238.895 463.04 239.365 461.997 239.365 460.645V460.267C239.365 458.869 238.906 457.791 237.989 457.035C237.072 456.279 235.766 455.9 234.07 455.9C232.351 455.9 231.033 456.279 230.116 457.035C229.199 457.768 228.74 458.846 228.74 460.267V460.645C228.74 461.997 229.199 463.04 230.116 463.774C231.055 464.507 232.373 464.874 234.07 464.874ZM266.869 451.774V462.949L277.081 451.774H281.585V469H276.806V457.826L266.594 469H262.09V451.774H266.869ZM298.339 456.244V451.774H318.212V456.244H310.819V469H305.8V456.244H298.339ZM329.898 469.413C327.743 469.413 325.875 469.069 324.294 468.381C322.712 467.671 321.497 466.662 320.649 465.355C319.801 464.026 319.377 462.467 319.377 460.679V460.232C319.377 458.399 319.789 456.817 320.615 455.488C321.463 454.158 322.678 453.138 324.259 452.428C325.841 451.717 327.72 451.362 329.898 451.362C332.052 451.362 333.909 451.717 335.468 452.428C337.026 453.138 338.218 454.158 339.044 455.488C339.892 456.817 340.316 458.399 340.316 460.232V460.679C340.316 462.467 339.892 464.026 339.044 465.355C338.218 466.662 337.026 467.671 335.468 468.381C333.909 469.069 332.052 469.413 329.898 469.413ZM329.863 464.874C331.537 464.874 332.832 464.507 333.749 463.774C334.688 463.04 335.158 461.997 335.158 460.645V460.267C335.158 458.869 334.7 457.791 333.783 457.035C332.866 456.279 331.56 455.9 329.863 455.9C328.144 455.9 326.826 456.279 325.909 457.035C324.993 457.768 324.534 458.846 324.534 460.267V460.645C324.534 461.997 324.993 463.04 325.909 463.774C326.849 464.507 328.167 464.874 329.863 464.874Z" fill="black"/>
<path d="M362.374 451.774V469H357.389V463.602C355.395 463.877 353.458 464.015 351.578 464.015C345.894 464.015 343.052 461.619 343.052 456.829V451.774H348.037V456.485C348.037 457.539 348.381 458.319 349.068 458.823C349.756 459.327 350.822 459.579 352.266 459.579C353.779 459.579 355.486 459.476 357.389 459.27V451.774H362.374ZM387.843 468.278V469H382.273L376.36 462.467H372.371V469H367.386V451.774H372.371V458.17H376.153L381.792 451.774H387.465V452.496L380.657 460.198L387.843 468.278ZM411.85 464.633V469H408.928C407.873 469 406.956 468.828 406.177 468.484C405.421 468.118 404.848 467.602 404.458 466.937C402.716 468.587 400.24 469.413 397.031 469.413C394.602 469.413 392.711 468.954 391.358 468.037C390.006 467.12 389.33 465.837 389.33 464.186C389.33 462.788 389.834 461.677 390.842 460.851C391.851 460.003 393.318 459.476 395.243 459.27L403.736 458.341C403.461 456.645 401.925 455.797 399.129 455.797C397.662 455.797 396.516 456.003 395.69 456.416C394.888 456.806 394.487 457.356 394.487 458.066V458.17H389.467V458.066C389.467 456.714 389.857 455.534 390.636 454.525C391.438 453.516 392.573 452.737 394.04 452.187C395.507 451.637 397.215 451.362 399.163 451.362C402.189 451.362 404.538 452.038 406.211 453.39C407.908 454.743 408.756 456.611 408.756 458.995V463.258C408.756 464.175 409.283 464.633 410.337 464.633H411.85ZM397.375 465.424C398.842 465.424 400.137 465.206 401.26 464.771C402.406 464.313 403.243 463.705 403.77 462.949V461.78L396.55 462.605C395.793 462.697 395.232 462.857 394.865 463.086C394.498 463.315 394.315 463.636 394.315 464.049C394.315 464.966 395.335 465.424 397.375 465.424ZM418.464 469.413C417.593 469.413 416.871 469.149 416.298 468.622C415.748 468.072 415.473 467.373 415.473 466.524C415.473 465.676 415.748 464.989 416.298 464.462C416.871 463.911 417.593 463.636 418.464 463.636C419.358 463.636 420.08 463.911 420.63 464.462C421.181 464.989 421.456 465.676 421.456 466.524C421.456 467.395 421.181 468.095 420.63 468.622C420.08 469.149 419.358 469.413 418.464 469.413Z" fill="white"/>
<path d="M87.7062 4.38328C90.5326 4.38328 92.6741 5.11161 94.1307 6.56827C95.5874 8.02494 96.3157 10.1882 96.3157 13.058V21.1132H91.587V13.058C91.587 11.6449 91.1957 10.5687 90.413 9.82946C89.652 9.06851 88.5324 8.68804 87.054 8.68804C86.0321 8.68804 85.1081 8.9272 84.282 9.4055C83.4558 9.86207 82.8253 10.4926 82.3905 11.297V21.1132H77.6617V4.77462H82.0643L82.1948 6.33999C83.6297 5.079 85.4668 4.42676 87.7062 4.38328Z" fill="#141414"/>
<path d="M120.088 14.3299H105.543C105.695 15.3517 106.195 16.1344 107.043 16.6779C107.891 17.2215 109.032 17.4932 110.467 17.4932C111.772 17.4932 112.837 17.3193 113.663 16.9715C114.489 16.6236 114.968 16.1453 115.098 15.5365H120.055C119.816 17.4498 118.859 18.9282 117.185 19.9718C115.533 20.9936 113.294 21.5045 110.467 21.5045C108.467 21.5045 106.728 21.1784 105.249 20.5261C103.771 19.8522 102.64 18.8956 101.858 17.6563C101.075 16.4171 100.684 14.9604 100.684 13.2863V12.6667C100.684 10.9709 101.075 9.50334 101.858 8.26409C102.662 7.0031 103.793 6.04648 105.249 5.39424C106.728 4.72027 108.467 4.38328 110.467 4.38328C113.511 4.38328 115.87 5.11161 117.544 6.56827C119.24 8.00319 120.088 10.0251 120.088 12.6341V14.3299ZM110.435 8.32931C109.174 8.32931 108.13 8.5576 107.304 9.01416C106.478 9.47073 105.934 10.1121 105.673 10.9383H115.098C114.837 10.1121 114.305 9.47073 113.5 9.01416C112.696 8.5576 111.674 8.32931 110.435 8.32931Z" fill="#141414"/>
<path d="M155.683 4.77462V5.45947L149.324 21.1132H143.128L138.888 10.7426L134.681 21.1132H128.517L122.125 5.45947V4.77462H127.18L131.616 16.6453L136.442 4.77462H141.301L146.226 16.841L150.857 4.77462H155.683Z" fill="#141414"/>
<path d="M179.164 39.9073C173.076 39.9073 168.454 38.8175 165.298 36.638C162.141 34.4585 160.563 31.2644 160.563 27.0558V26.4921H168.905V27.0558C168.905 28.8595 169.807 30.2311 171.611 31.1705C173.414 32.1099 176.045 32.5797 179.502 32.5797C182.583 32.5797 184.913 32.2602 186.491 31.6214C188.107 30.945 188.915 29.968 188.915 28.6904V28.2958C188.915 27.2812 188.464 26.5109 187.562 25.9848C186.66 25.4212 185.063 24.9702 182.771 24.632L173.358 23.2792C165.241 22.0768 161.183 18.7324 161.183 13.2461V12.6824C161.183 9.18769 162.705 6.46332 165.748 4.50929C168.83 2.55527 173.132 1.57825 178.656 1.57825C184.518 1.57825 188.99 2.63042 192.071 4.73476C195.153 6.8391 196.693 9.88287 196.693 13.8661V14.3734H188.351V13.8661C188.351 10.5593 185.12 8.90586 178.656 8.90586C175.763 8.90586 173.546 9.20648 172.005 9.80772C170.502 10.409 169.75 11.292 169.75 12.4569V12.9079C169.75 13.7721 170.164 14.4485 170.991 14.937C171.855 15.4255 173.32 15.8201 175.387 16.1207L184.857 17.4735C189.178 18.1123 192.353 19.2772 194.382 20.9682C196.449 22.6216 197.483 24.9326 197.483 27.9013V28.4649C197.483 32.0724 195.886 34.8907 192.691 36.9198C189.497 38.9115 184.988 39.9073 179.164 39.9073Z" fill="#141414"/>
<path d="M217.914 18.2063V28.9159C217.914 29.9304 218.196 30.7196 218.76 31.2832C219.361 31.8093 220.207 32.0724 221.296 32.0724H227.948V39.2309H220.225C216.994 39.2309 214.439 38.3666 212.56 36.638C210.681 34.8719 209.741 32.4857 209.741 29.4795V18.2063H200.328V10.9914H207.881C208.67 10.9914 209.215 10.8411 209.516 10.5405C209.817 10.2399 209.967 9.69498 209.967 8.90586V3.49471H217.914V10.9914H229.639V18.2063H217.914Z" fill="#141414"/>
<path d="M266.025 10.9914V39.2309H258.415L258.19 36.5253C255.71 38.7048 252.534 39.8321 248.664 39.9073C243.817 39.9448 240.115 38.7048 237.56 36.1871C235.042 33.6318 233.783 29.8741 233.783 24.9139V10.9914H241.956V24.9139C241.956 27.3564 242.614 29.2353 243.929 30.5505C245.282 31.8281 247.236 32.4669 249.791 32.4669C251.557 32.4669 253.154 32.0724 254.582 31.2832C256.01 30.4565 257.1 29.348 257.852 27.9576V10.9914H266.025Z" fill="#141414"/>
<path d="M306.041 0V39.2309H298.432L298.206 36.8071C295.613 38.8739 292.325 39.9073 288.342 39.9073C285.073 39.9073 282.236 39.3248 279.831 38.1599C277.426 36.9574 275.566 35.2664 274.251 33.087C272.936 30.8699 272.278 28.2958 272.278 25.3648V24.8011C272.278 21.8701 272.917 19.3148 274.194 17.1353C275.51 14.9558 277.37 13.2836 279.775 12.1187C282.217 10.9163 285.073 10.315 288.342 10.315C292.062 10.315 295.238 11.2732 297.868 13.1897V0H306.041ZM289.526 32.4669C291.292 32.4669 292.908 32.1851 294.373 31.6214C295.839 31.0202 297.004 30.2311 297.868 29.2541V20.9119C297.041 19.9348 295.877 19.1645 294.373 18.6008C292.908 18.0372 291.292 17.7553 289.526 17.7553C286.745 17.7553 284.585 18.3754 283.044 19.6154C281.503 20.8555 280.733 22.5841 280.733 24.8011V25.3648C280.733 27.6194 281.503 29.3668 283.044 30.6068C284.585 31.8469 286.745 32.4669 289.526 32.4669Z" fill="#141414"/>
<path d="M348.37 10.9914V12.1751L333.433 42.0492C332.231 44.4166 330.746 46.1263 328.98 47.1785C327.214 48.2682 324.847 48.8131 321.878 48.8131H314.494V41.6546H321.483C322.498 41.6546 323.287 41.5231 323.851 41.26C324.452 41.0346 324.959 40.5837 325.373 39.9073L311.225 12.1751V10.9914H319.905L329.882 31.3396L339.69 10.9914H348.37Z" fill="#141414"/>
<path fill-rule="evenodd" clip-rule="evenodd" d="M211.661 66.0641C180.986 65.5011 151.294 68.5952 121.899 77.3764C86.0173 88.095 33.8806 87.6677 21.3054 122.928C7.77512 160.866 57.8515 193.44 66.4744 232.783C72.6614 261.013 58.5085 289.607 64.0522 317.969C71.1965 354.521 68.153 407.906 103.183 420.594C141.157 434.348 173.715 385.265 211.661 371.432C234.78 363.005 263.316 370.789 282.403 355.262C301.111 340.043 294.06 307.118 311.367 290.325C338.865 263.641 395.195 268.664 408.623 232.783C420.362 201.415 385.817 170.763 366.3 143.54C348.177 118.262 327.353 94.5714 299.539 80.6366C272.534 67.1065 241.863 66.6184 211.661 66.0641Z" fill="#4200FF"/>
<g clip-path="url(#clip0_81_1049)">
<path d="M196.861 241.789L80.4004 139.405C76.5624 136.028 77.915 129.881 82.8521 128.324L217.894 85.8853C226.872 83.0659 236.729 85.1149 243.712 91.2619L349.858 184.564C353.274 187.564 352.056 193.007 347.678 194.384L196.861 241.789Z" fill="#7D7D7D"/>
<g opacity="0.6">
<path d="M347.677 194.4L347.305 194.515L241.92 101.884C234.92 95.737 225.08 93.6881 216.102 96.5075L81.0769 138.946C80.7726 139.045 80.502 139.143 80.2484 139.274C76.5964 135.865 77.9997 129.865 82.8522 128.341L217.894 85.9019C226.872 83.0825 236.729 85.1315 243.712 91.2785L349.842 184.581C353.257 187.581 352.057 193.023 347.677 194.4Z" fill="#F2F0F7"/>
</g>
<g opacity="0.2">
<path d="M347.679 194.4L196.862 241.789L80.4016 139.405C76.5466 136.028 77.9162 129.881 82.8532 128.324L89.0416 126.39C123.296 146.06 182.389 159.059 249.529 159.059C272.811 159.059 295.129 157.502 315.773 154.633L349.843 184.581C353.258 187.581 352.057 193.023 347.679 194.4Z" fill="#141414"/>
</g>
<path d="M196.861 245.428C195.948 245.428 195.035 245.1 194.341 244.494L77.8813 142.11C75.0747 139.635 73.8743 136.028 74.6689 132.438C75.4636 128.849 78.0843 126.029 81.7025 124.898L216.744 82.4595C226.973 79.2467 238.268 81.5907 246.231 88.6065L352.378 181.926C354.982 184.221 356.098 187.564 355.354 190.892C354.61 194.219 352.175 196.842 348.844 197.891L198.028 245.28C197.639 245.379 197.25 245.428 196.861 245.428ZM225.993 88.2951C223.66 88.2951 221.326 88.6392 219.044 89.3605L84.0019 131.799C82.5141 132.275 82.1083 133.471 81.9899 133.963C81.8885 134.455 81.7533 135.717 82.903 136.733L197.757 237.707L346.511 190.974C347.61 190.63 347.931 189.728 348.016 189.368C348.1 189.007 348.185 188.056 347.339 187.302L241.193 93.9666C236.983 90.262 231.521 88.2951 225.993 88.2951Z" fill="#141414"/>
<path d="M281.825 198.226C285.678 178.293 254.679 155.936 212.588 148.288C170.497 140.641 133.252 150.6 129.399 170.532C125.546 190.464 156.544 212.821 198.636 220.469C240.727 228.116 277.972 218.158 281.825 198.226Z" fill="#3D3D3D"/>
<path d="M226.602 226.725C217.573 226.725 207.92 225.856 197.944 224.053C153.138 215.906 121.419 192.105 125.714 169.861C127.862 158.78 138.497 150.158 155.658 145.568C171.906 141.224 192.364 140.929 213.279 144.716C234.177 148.519 253.147 155.977 266.674 165.73C280.961 176.041 287.656 187.81 285.509 198.891C282.178 216.201 258.186 226.725 226.602 226.725ZM184.79 149.339C174.949 149.339 165.735 150.42 157.67 152.584C143.619 156.338 134.658 163.14 133.103 171.221C129.688 188.859 160.02 209.775 199.347 216.922C238.657 224.069 274.755 215.201 278.171 197.579C279.726 189.499 273.927 180.024 262.227 171.582C249.58 162.469 231.725 155.469 211.91 151.863C202.644 150.174 193.48 149.339 184.79 149.339Z" fill="#141414"/>
<path d="M299.491 382.809C272.54 400.381 224.421 411.888 164.77 401.118C104.697 392.922 62.8677 367.171 43.0688 342.19C23.2868 317.224 43.6774 296.423 53.9742 294.44C53.9742 294.44 56.5442 274.146 67.1622 250.329C78.8624 224.07 100.352 193.548 138.97 181.287C156.384 175.746 177.299 173.927 202.39 177.893C336.823 199.186 304.817 334.174 304.817 334.174C313.947 339.223 326.442 365.236 299.491 382.809Z" fill="#FF9600"/>
<g opacity="0.2">
<path d="M132.899 200.219C140.356 238.56 112.745 267.147 93.352 268.573C83.9514 269.262 74.4661 260.033 67.179 250.346C78.8791 224.086 100.369 193.564 138.986 181.303L132.899 200.219Z" fill="#141414"/>
</g>
<path d="M240.805 315.618C247.22 315.618 252.42 308.617 252.42 299.98C252.42 291.344 247.22 284.342 240.805 284.342C234.39 284.342 229.189 291.344 229.189 299.98C229.189 308.617 234.39 315.618 240.805 315.618Z" fill="#141414"/>
<path d="M240.805 319.24C232.199 319.24 225.436 310.782 225.436 299.98C225.436 289.178 232.182 280.72 240.805 280.72C249.411 280.72 256.174 289.178 256.174 299.98C256.174 310.782 249.411 319.24 240.805 319.24ZM240.805 287.981C236.544 287.981 232.943 293.472 232.943 299.98C232.943 306.488 236.544 311.979 240.805 311.979C245.066 311.979 248.667 306.488 248.667 299.98C248.667 293.489 245.066 287.981 240.805 287.981Z" fill="#141414"/>
<path d="M226.281 306.176C225.385 301.21 225.385 295.866 227.126 290.588C227.566 289.276 228.124 287.981 228.817 286.719C229.493 285.473 230.389 284.211 231.353 283.113C232.333 281.998 233.433 280.982 234.633 280.113C235.85 279.244 237.152 278.507 238.522 277.9C239.892 277.294 241.346 276.818 242.833 276.54C244.338 276.277 245.894 276.179 247.415 276.277C250.509 276.425 253.451 277.556 255.886 279.064C258.304 280.654 260.282 282.654 261.753 284.85C263.241 287.063 264.323 289.423 264.965 291.866C265.219 292.833 264.611 293.833 263.613 294.079C262.818 294.276 262.024 293.948 261.584 293.325L261.55 293.276C260.265 291.423 258.912 289.719 257.374 288.26C257.002 287.883 256.596 287.555 256.208 287.227C255.785 286.932 255.396 286.588 254.973 286.309C254.162 285.703 253.282 285.26 252.42 284.85C248.92 283.26 245.302 283.441 242.038 285.08C240.432 285.883 238.995 287.047 237.846 288.391C237.254 289.079 236.798 289.768 236.341 290.588C235.884 291.391 235.496 292.26 235.174 293.161C233.872 296.8 233.568 301.029 233.703 305.34V305.406C233.771 307.422 232.131 309.094 230.068 309.159C228.208 309.242 226.602 307.93 226.281 306.176Z" fill="#141414"/>
<path d="M141.833 279.626C143.606 271.162 139.947 263.297 133.66 262.059C127.373 260.822 120.84 266.68 119.067 275.143C117.294 283.607 120.954 291.472 127.24 292.71C133.527 293.947 140.061 288.089 141.833 279.626Z" fill="#141414"/>
<path d="M128.978 296.505C128.15 296.505 127.321 296.423 126.476 296.259C122.283 295.44 118.715 292.473 116.703 288.129C114.843 284.129 114.37 279.261 115.384 274.425C116.399 269.59 118.783 265.295 122.114 262.311C125.732 259.082 130.195 257.689 134.389 258.525C138.581 259.344 142.149 262.311 144.161 266.655C146.021 270.655 146.494 275.523 145.48 280.359C143.502 289.883 136.519 296.505 128.978 296.505ZM131.954 265.54C129.891 265.54 128.132 266.803 127.203 267.639C125.056 269.573 123.416 272.573 122.722 275.867C122.029 279.162 122.334 282.556 123.534 285.145C124.126 286.441 125.512 288.67 127.964 289.145C132.14 289.965 136.806 285.276 138.142 278.9C138.835 275.605 138.531 272.212 137.331 269.623C136.739 268.327 135.352 266.098 132.884 265.623C132.579 265.573 132.258 265.54 131.954 265.54Z" fill="#141414"/>
<path d="M136.264 284.031C137.329 279.851 137.954 275.655 137.498 271.786C137.362 270.819 137.21 269.885 136.94 268.983C136.686 268.065 136.365 267.278 135.942 266.459C135.536 265.655 135.029 264.885 134.454 264.164C133.863 263.459 133.203 262.803 132.493 262.214C129.619 259.803 125.831 258.837 121.909 259.738C119.964 260.214 117.986 261.049 116.16 262.246C114.317 263.426 112.627 264.901 111.02 266.541L111.003 266.573C110.479 267.115 109.617 267.131 109.059 266.639C108.603 266.213 108.501 265.557 108.789 265.049C111.139 260.705 114.858 256.705 120.116 254.558C121.435 254.066 122.822 253.64 124.276 253.46C125.73 253.28 127.218 253.214 128.706 253.411C131.698 253.723 134.522 254.886 136.94 256.509C139.374 258.132 141.386 260.312 142.874 262.804C143.619 264.033 144.21 265.426 144.65 266.754C145.073 268.098 145.394 269.459 145.563 270.819C146.273 276.278 145.225 281.539 143.382 286.244C142.638 288.129 140.474 289.063 138.546 288.358C136.754 287.703 135.79 285.851 136.23 284.096L136.264 284.031Z" fill="#141414"/>
<path d="M140.919 275.024C141.752 271.049 140.372 267.422 137.837 266.924C135.302 266.425 132.572 269.242 131.74 273.217C130.907 277.192 132.287 280.818 134.822 281.317C137.357 281.816 140.087 278.998 140.919 275.024Z" fill="#F2F0F7"/>
<g opacity="0.35">
<path d="M120.067 285.72C121.421 285.72 122.518 283.114 122.518 279.9C122.518 276.687 121.421 274.081 120.067 274.081C118.713 274.081 117.615 276.687 117.615 279.9C117.615 283.114 118.713 285.72 120.067 285.72Z" fill="#F2F0F7"/>
</g>
<g opacity="0.35">
<path d="M246.705 306.127C245.403 309.077 245.369 311.897 246.621 312.406C247.872 312.913 249.935 310.946 251.219 307.979C252.521 305.029 252.555 302.21 251.304 301.701C250.053 301.193 248.007 303.177 246.705 306.127Z" fill="#F2F0F7"/>
</g>
<path d="M242.869 293.888C243.657 290.126 242.033 286.632 239.242 286.082C236.451 285.532 233.55 288.137 232.762 291.898C231.974 295.66 233.598 299.155 236.389 299.705C239.18 300.254 242.082 297.65 242.869 293.888Z" fill="#F2F0F7"/>
<g opacity="0.6">
<path d="M308.013 307.061C306.761 265.459 289.651 203.661 202.34 189.827C196.388 188.876 190.673 188.269 185.179 187.958C185.365 188.335 185.466 188.728 185.466 189.138C185.466 192.777 177.654 195.727 168 195.727C159.292 195.727 152.056 193.318 150.754 190.154C66.4862 207.153 53.9407 306.389 53.9407 306.389C47.7863 307.57 38.0644 315.454 35.4098 326.912C31.5549 309.209 45.8926 296.014 53.9914 294.456C53.9914 294.456 71.3556 157.157 202.39 177.91C298.528 193.121 309.552 266.492 308.013 307.061Z" fill="#F2F0F7"/>
</g>
<path d="M306.609 335.387C306 334.895 305.408 334.485 304.817 334.158C304.817 334.158 307.403 323.208 308.029 307.045C308.367 318.503 307.521 328.42 306.609 335.387Z" fill="#FFCF69"/>
<path d="M304.817 334.173C294.554 327.551 282.093 323.502 251.913 326.387C251.913 326.387 229.611 291.128 184.417 284.539C139.426 276.835 106.709 303.39 106.709 303.39C79.0313 291.342 65.894 291.342 53.991 294.456C43.8463 297.111 23.3035 317.224 43.0855 342.205C62.8675 367.187 104.714 392.939 164.787 401.135C224.438 411.904 272.54 400.381 299.508 382.824C326.442 365.236 313.558 339.812 304.817 334.173Z" fill="#F2F0F7"/>
<path d="M60.2011 268.731C60.1819 268.731 60.1627 268.748 60.1627 268.748C60.1819 268.696 60.2011 268.626 60.2202 268.573C60.2011 268.678 60.2011 268.731 60.2011 268.731Z" fill="#FFCF69"/>
<g opacity="0.2">
<path d="M299.492 382.808C272.541 400.381 224.421 411.888 164.771 401.118C104.698 392.922 62.8681 367.171 43.0692 342.189C30.0333 325.732 34.4462 311.077 41.9195 302.439C36.137 306.16 45.6561 366.646 170.452 386.153C266.2 401.118 311.259 363.728 314.861 349.221C317.515 359.384 315.232 372.547 299.492 382.808Z" fill="#141414"/>
</g>
<path d="M164.787 404.757C164.618 404.757 164.432 404.741 164.263 404.724C110.649 397.414 64.2368 374.858 40.1095 344.418C38.8414 342.828 39.1626 340.55 40.8027 339.32C42.4427 338.091 44.7929 338.403 46.0609 339.993C69.0217 368.973 113.607 390.48 165.311 397.528C167.357 397.807 168.794 399.643 168.507 401.626C168.219 403.446 166.613 404.757 164.787 404.757Z" fill="#141414"/>
<path d="M250.779 327.06C249.782 325.83 248.683 324.535 247.55 323.339C246.434 322.109 245.301 320.912 244.118 319.749C241.768 317.405 239.333 315.159 236.797 313.028C231.775 308.733 226.348 304.931 220.684 301.57C219.264 300.751 217.826 299.947 216.355 299.193C215.645 298.8 214.901 298.423 214.174 298.062C213.431 297.702 212.703 297.324 211.959 296.98C208.984 295.587 205.94 294.357 202.863 293.259C199.769 292.194 196.641 291.194 193.445 290.457C190.284 289.62 187.037 289.079 183.74 288.539C180.444 288.014 177.197 287.571 173.917 287.375C170.637 287.096 167.357 287.112 164.077 287.145C160.797 287.243 157.5 287.49 154.237 287.899C150.973 288.358 147.71 288.866 144.481 289.587C138.039 291.047 131.665 292.997 125.51 295.538C122.416 296.768 119.39 298.177 116.414 299.685C114.926 300.423 113.455 301.226 112.001 302.046C110.547 302.848 109.093 303.734 107.757 304.586L107.69 304.636C106.946 305.111 105.948 304.914 105.441 304.193C105.001 303.554 105.12 302.701 105.678 302.177C108.315 299.767 111.088 297.751 113.996 295.8C116.887 293.85 119.931 292.129 123.025 290.489C129.247 287.276 135.841 284.67 142.688 282.768C146.104 281.818 149.587 281.047 153.104 280.473C156.621 279.916 160.188 279.523 163.756 279.31C170.874 278.916 178.161 279.392 185.11 280.556C188.576 281.113 192.11 281.785 195.559 282.72C199.025 283.605 202.406 284.752 205.737 286.014C212.348 288.653 218.706 291.882 224.522 295.85C227.43 297.833 230.253 299.914 232.925 302.16C235.596 304.406 238.132 306.799 240.55 309.275C242.934 311.782 245.217 314.372 247.313 317.11C249.41 319.863 251.355 322.633 253.045 325.715C253.383 326.338 253.147 327.125 252.487 327.453C251.912 327.748 251.202 327.584 250.813 327.108L250.779 327.06Z" fill="#141414"/>
<path d="M210.167 408.904C195.272 408.904 179.801 407.527 164.178 404.708C110.598 397.381 64.2368 374.842 40.1095 344.419C28.7982 330.141 30.0663 317.798 33.1097 309.946C36.728 300.636 44.3195 294.03 50.643 291.653C51.5053 286.408 54.1259 273.064 60.3988 256.952C67.7536 238.035 81.7532 211.677 106.641 193.58C132.51 174.762 164.939 168.288 203.015 174.32C242.63 180.598 272.016 197.203 290.36 223.676C307.539 248.477 311.546 277.425 311.884 297.341C312.172 314.209 310.007 327.387 308.993 332.584C314.184 336.796 319.188 345.386 319.56 355.303C319.881 363.679 317.007 375.776 301.604 385.825C278.39 400.938 245.944 408.904 210.167 408.904ZM176.487 179.401C151.345 179.401 129.433 186.073 111.156 199.35C66.1981 232.003 57.7949 294.259 57.7104 294.882C57.5075 296.44 56.3071 297.702 54.7178 297.997C50.643 298.784 43.305 304.242 40.1095 312.487C37.7255 318.601 36.8294 328.338 46.0441 339.977C69.0048 368.957 113.59 390.464 165.294 397.512C165.345 397.512 165.396 397.528 165.463 397.545C216.795 406.806 266.115 400.167 297.394 379.776C309.939 371.596 312.29 362.089 312.036 355.549C311.715 346.746 306.541 339.304 302.94 337.304C301.503 336.517 300.776 334.895 301.147 333.338C301.283 332.731 315.062 272.343 284.071 227.659C266.926 202.94 239.232 187.384 201.764 181.467C193.023 180.09 184.586 179.401 176.487 179.401Z" fill="#141414"/>
<path d="M182.743 284.867C218.046 290.457 211.436 322.945 178.398 317.06C145.022 311.127 152.8 280.13 182.743 284.867Z" fill="#141414"/>
<path d="M196.313 293.369C196.65 291.431 191.301 288.944 184.367 287.813C177.434 286.683 171.54 287.336 171.204 289.273C170.868 291.21 176.216 293.698 183.15 294.828C190.084 295.959 195.977 295.306 196.313 293.369Z" fill="#F2F0F7"/>
<path d="M336.283 252.313C330.687 269.311 293.743 294.39 279.93 290.538C266.133 286.686 257.967 251.64 283.514 220.693C283.514 220.693 273.302 207.514 262.396 200.694C262.396 200.694 265.44 199.531 269.853 197.99C279.879 194.482 297.04 188.974 301.96 190.482C307.54 192.187 329.013 218.922 335.235 238.543C336.926 243.854 337.484 248.673 336.283 252.313Z" fill="#FF9600"/>
<g opacity="0.6">
<path d="M336.282 252.313C335.928 253.362 335.471 254.444 334.896 255.542C334.71 253.165 334.135 250.542 333.256 247.788C327.034 228.167 305.561 201.432 299.982 199.727C295.4 198.318 280.216 203.006 270.055 206.481C267.637 204.35 265.033 202.334 262.379 200.678C262.379 200.678 265.422 199.515 269.835 197.974C279.862 194.465 297.023 188.958 301.943 190.466C307.523 192.17 328.995 218.906 335.218 238.527C336.925 243.854 337.483 248.673 336.282 252.313Z" fill="#F2F0F7"/>
</g>
<g opacity="0.2">
<path d="M336.283 252.313C330.687 269.311 293.743 294.39 279.93 290.538C266.133 286.686 257.967 251.64 283.514 220.693C283.514 220.693 273.302 207.514 262.396 200.694C262.396 200.694 265.44 199.531 269.853 197.99C274.908 202.629 282.906 207.547 293.794 207.235C296.144 207.169 297.683 209.612 296.499 211.579C289.127 223.987 272.862 255.886 293.743 266.262C309.501 274.081 326.883 250.608 335.218 238.543C336.926 243.855 337.484 248.674 336.283 252.313Z" fill="#141414"/>
</g>
<path d="M283.142 294.554C281.654 294.554 280.234 294.39 278.898 294.014C273.031 292.374 268.128 286.719 265.422 278.507C261.06 265.213 262.075 242.363 278.746 220.692C275.449 216.792 268.009 208.497 260.35 203.71C259.167 202.973 258.508 201.662 258.66 200.301C258.812 198.94 259.708 197.777 261.01 197.285C268.923 194.269 295.315 184.597 303.076 186.974C309.789 189.023 324.802 208.677 332.766 223.561C339.715 236.56 342.099 246.592 339.85 253.395C336.469 263.656 323.94 274.999 313.339 282.195C308.707 285.342 294.183 294.554 283.142 294.554ZM270.123 201.711C279.016 208.874 286.151 218.021 286.507 218.496C287.538 219.824 287.504 221.659 286.439 222.938C269.869 243.035 268.618 264.246 272.575 276.31C274.468 282.08 277.613 286.096 280.978 287.031C286.067 288.441 297.598 284.014 309.045 276.261C321.116 268.082 330.399 258.246 332.715 251.198C334.693 245.166 330.315 232.823 320.998 218.201C312.054 204.169 302.941 194.777 300.776 193.892C297.801 192.974 283.649 196.924 270.123 201.711Z" fill="#141414"/>
<path d="M283.513 224.299C282.719 224.299 281.924 224.053 281.248 223.545C279.608 222.332 279.286 220.054 280.538 218.447C280.757 218.185 285.796 211.792 291.189 206.94C292.711 205.579 295.078 205.661 296.482 207.136C297.885 208.612 297.8 210.907 296.279 212.267C291.359 216.693 286.523 222.807 286.472 222.873C285.745 223.823 284.629 224.299 283.513 224.299Z" fill="#141414"/>
<path d="M119.712 189.122C130.127 227.446 108.029 256.296 93.7926 254.394C79.5734 252.493 56.2577 215.07 58.2528 197.318C58.4557 195.465 59.1659 193.531 60.2648 191.547C69.7501 174.434 108.858 153.535 115.469 154.24C120.71 154.813 134.541 167.075 142.149 174.156C145.277 177.074 147.356 179.123 147.356 179.123C134.557 181.073 119.712 189.122 119.712 189.122Z" fill="#FF9600"/>
<g opacity="0.6">
<path d="M147.373 179.123C145.056 179.483 142.655 180.041 140.305 180.696C132.477 173.517 120.32 163.026 115.484 162.501C108.873 161.78 69.7659 182.68 60.2807 199.809C59.4691 201.284 58.8605 202.727 58.5223 204.137C58.1334 201.662 58.032 199.367 58.2518 197.318C58.4546 195.465 59.1648 193.531 60.2638 191.547C69.749 174.434 108.857 153.535 115.467 154.24C120.709 154.813 134.539 167.075 142.148 174.156C145.293 177.09 147.373 179.123 147.373 179.123Z" fill="#F2F0F7"/>
</g>
<g opacity="0.2">
<path d="M119.712 189.122C130.127 227.446 108.029 256.296 93.7926 254.394C79.5734 252.493 56.2577 215.07 58.2528 197.318C58.4557 195.466 59.1659 193.531 60.2648 191.548C63.4097 211.119 70.4433 233.642 85.9815 228.249C105.104 221.61 109.094 191.843 109.838 175.762C110.058 171.025 114.911 167.894 119.543 169.418C127.422 172.025 135.876 173.418 142.166 174.156C145.294 177.074 147.373 179.123 147.373 179.123C134.557 181.073 119.712 189.122 119.712 189.122Z" fill="#141414"/>
</g>
<path d="M95.1441 258.115C94.5188 258.115 93.8934 258.083 93.2847 258.001C81.7366 256.46 70.0365 239.002 66.7395 233.692C60.044 222.955 53.3317 207.661 54.5321 196.941C55.3268 189.843 61.701 181.598 73.4857 172.435C86.978 161.944 108.891 149.896 115.907 150.634C123.989 151.503 144.075 170.714 150.044 176.582C151.025 177.549 151.379 178.975 150.94 180.27C150.5 181.565 149.351 182.516 147.964 182.729C138.969 184.09 128.706 188.745 124.056 191.023C130.245 217.381 121.639 238.658 112.086 249.116C106.777 254.902 100.707 258.115 95.1441 258.115ZM115.045 157.846C112.678 157.846 100.47 162.846 86.4708 172.14C71.8287 181.86 62.6817 191.417 61.9715 197.711C61.1431 205.055 65.539 217.693 73.1475 229.921C80.3671 241.511 89.0746 250.1 94.3161 250.788C97.7822 251.247 102.33 248.821 106.49 244.281C115.146 234.806 122.856 214.923 116.11 190.04C115.67 188.434 116.414 186.745 117.902 185.942C118.426 185.663 128.774 180.09 139.882 177.041C129.518 167.353 118.206 158.19 115.079 157.846C115.061 157.846 115.061 157.846 115.045 157.846Z" fill="#141414"/>
<path d="M119.711 192.761C118.021 192.761 116.482 191.646 116.076 189.974C116.059 189.892 114.183 182.417 111.545 176.434C110.733 174.598 111.613 172.451 113.506 171.664C115.4 170.877 117.615 171.73 118.426 173.566C121.334 180.122 123.279 187.942 123.364 188.286C123.854 190.237 122.602 192.203 120.59 192.662C120.303 192.728 119.999 192.761 119.711 192.761Z" fill="#141414"/>
<path d="M106.558 328.765C72.8098 328.765 45.3517 302.144 45.3517 269.426C45.3517 236.708 72.8098 210.087 106.558 210.087C140.305 210.087 167.764 236.708 167.764 269.426C167.764 302.144 140.305 328.765 106.558 328.765ZM106.558 217.332C76.9352 217.332 52.8418 240.691 52.8418 269.409C52.8418 298.128 76.9352 321.487 106.558 321.487C136.18 321.487 160.273 298.128 160.273 269.409C160.273 240.691 136.18 217.332 106.558 217.332Z" fill="#141414"/>
<path d="M262.903 356.205C229.155 356.205 201.697 329.584 201.697 296.865C201.697 264.147 229.155 237.527 262.903 237.527C296.651 237.527 324.109 264.147 324.109 296.865C324.109 329.584 296.668 356.205 262.903 356.205ZM262.903 244.788C233.281 244.788 209.187 268.147 209.187 296.865C209.187 325.584 233.281 348.943 262.903 348.943C292.525 348.943 316.619 325.584 316.619 296.865C316.636 268.147 292.525 244.788 262.903 244.788Z" fill="#141414"/>
<path d="M176.843 330.141C176.641 330.141 176.455 330.125 176.252 330.092C174.206 329.781 172.82 327.912 173.141 325.928L174.697 316.47C175.017 314.487 176.945 313.143 178.991 313.454C181.037 313.766 182.423 315.634 182.102 317.618L180.546 327.076C180.242 328.879 178.653 330.141 176.843 330.141Z" fill="#141414"/>
<path d="M145.412 323.372L145.564 323.781L145.767 324.273C145.902 324.601 146.071 324.929 146.24 325.256C146.595 325.912 147.001 326.518 147.458 327.109C148.37 328.273 149.47 329.256 150.687 330.059C151.921 330.846 153.274 331.436 154.711 331.863C156.165 332.256 157.703 332.518 159.107 332.551C161.982 332.6 164.72 331.764 167.172 330.223C168.406 329.453 169.556 328.518 170.605 327.486C171.129 326.961 171.636 326.421 172.109 325.847C172.346 325.568 172.565 325.273 172.785 324.994L173.09 324.568C173.174 324.453 173.309 324.257 173.309 324.24L181.087 325.962C181.07 325.912 181.087 326.027 181.087 326.076L181.121 326.306C181.138 326.453 181.172 326.617 181.206 326.781C181.273 327.109 181.358 327.453 181.442 327.797C181.628 328.469 181.865 329.158 182.136 329.814C182.693 331.141 183.386 332.387 184.266 333.535C185.99 335.829 188.341 337.616 191.164 338.78C194.021 339.96 197.149 340.616 200.159 340.337C201.664 340.206 203.135 339.829 204.538 339.239C205.231 338.944 205.908 338.583 206.533 338.174C206.854 337.977 207.159 337.747 207.446 337.518L207.869 337.173L208.19 336.878L208.41 336.682C209.273 335.911 210.625 335.944 211.419 336.797C212.147 337.551 212.181 338.681 211.555 339.468C211.318 339.78 211.166 339.927 210.98 340.14C210.794 340.337 210.625 340.517 210.439 340.698C210.067 341.058 209.695 341.403 209.289 341.714C208.495 342.353 207.649 342.927 206.77 343.435C204.994 344.435 203.033 345.173 201.004 345.566C198.976 345.976 196.896 346.074 194.85 345.91C192.804 345.747 190.843 345.402 188.882 344.779C186.92 344.173 185.01 343.304 183.234 342.206C181.459 341.091 179.836 339.747 178.416 338.206C176.995 336.665 175.812 334.961 174.831 333.141C174.341 332.239 173.918 331.289 173.546 330.322C173.36 329.83 173.191 329.338 173.039 328.83C172.955 328.568 172.887 328.322 172.819 328.043L172.718 327.633C172.684 327.469 172.65 327.371 172.617 327.109L180.394 328.83C180.14 329.174 180.022 329.322 179.836 329.535L179.329 330.125C178.991 330.502 178.636 330.879 178.28 331.24C177.57 331.961 176.826 332.633 176.049 333.272C174.493 334.551 172.785 335.682 170.925 336.616C169.083 337.551 167.07 338.272 164.974 338.681C162.878 339.091 160.714 339.173 158.617 338.944C156.486 338.698 154.559 338.157 152.665 337.403C150.772 336.633 148.962 335.616 147.373 334.322C145.784 333.026 144.414 331.485 143.366 329.781C142.842 328.928 142.386 328.043 142.014 327.125C141.828 326.666 141.658 326.191 141.506 325.715C141.438 325.47 141.371 325.224 141.304 324.978C141.236 324.716 141.185 324.502 141.134 324.142C140.932 322.994 141.743 321.896 142.926 321.699C143.992 321.519 145.023 322.142 145.361 323.093L145.412 323.372Z" fill="#141414"/>
<path d="M163.755 346.304C163.84 346.32 164.042 346.451 164.195 346.517C164.364 346.615 164.533 346.697 164.702 346.779C165.04 346.959 165.412 347.123 165.767 347.287C166.494 347.598 167.221 347.91 167.982 348.156C169.487 348.648 171.025 349.024 172.581 349.254C173.375 349.319 174.153 349.483 174.965 349.483C175.371 349.5 175.76 349.566 176.166 349.566C176.571 349.566 176.977 349.549 177.383 349.566C177.788 349.598 178.211 349.566 178.617 349.533L179.868 349.5C180.714 349.467 181.559 349.352 182.421 349.369H182.692C183.909 349.385 184.89 350.336 184.89 351.516C184.89 352.401 184.332 353.155 183.537 353.467C182.624 353.844 181.694 354.155 180.73 354.434C179.75 354.631 178.786 354.909 177.772 354.975C175.76 355.237 173.68 355.139 171.634 354.844C169.605 354.467 167.593 353.844 165.75 352.877C164.82 352.418 163.958 351.828 163.13 351.221C162.724 350.893 162.318 350.565 161.963 350.189C161.777 350.008 161.591 349.828 161.405 349.615C161.219 349.402 161.084 349.221 160.83 348.943C160.188 348.156 160.323 347.008 161.134 346.402C161.608 346.041 162.216 345.926 162.758 346.074L163.755 346.304Z" fill="#141414"/>
<path d="M352.31 313.094C350.248 313.094 348.574 311.471 348.557 309.471L348.067 190.204C348.067 188.204 349.724 186.565 351.804 186.548H351.82C353.883 186.548 355.557 188.171 355.574 190.171L356.064 309.439C356.064 311.455 354.39 313.094 352.31 313.094C352.31 313.094 352.328 313.094 352.31 313.094Z" fill="#141414"/>
<path d="M347.61 311.963L343.045 319.733C341.101 323.028 343.569 327.142 347.492 327.142H356.132C359.953 327.142 362.421 323.24 360.68 319.946L356.605 312.176C354.762 308.652 349.622 308.537 347.61 311.963Z" fill="#FFF761"/>
<path d="M356.132 330.78H347.492C344.297 330.78 341.439 329.19 339.833 326.519C338.226 323.846 338.21 320.65 339.799 317.962L344.347 310.192C345.953 307.438 348.997 305.783 352.26 305.849C355.523 305.914 358.465 307.717 359.953 310.536L364.028 318.306C365.431 320.995 365.313 324.125 363.689 326.683C362.067 329.239 359.243 330.78 356.132 330.78ZM350.874 313.766L346.309 321.535C345.97 322.109 346.173 322.601 346.309 322.847C346.461 323.093 346.799 323.502 347.492 323.502H356.132C356.791 323.502 357.146 323.109 357.298 322.879C357.45 322.65 357.654 322.158 357.349 321.585L353.274 313.815C352.953 313.208 352.395 313.094 352.091 313.094C351.77 313.094 351.228 313.175 350.874 313.766Z" fill="#141414"/>
</g>
<defs>
<clipPath id="clip0_81_1049">
<rect width="334" height="327.86" fill="white" transform="translate(31 81.0442)"/>
</clipPath>
</defs>
</svg>
