<svg width="24" height="24" viewBox="0 0 24 24" fill="none" xmlns="http://www.w3.org/2000/svg">
<g clip-path="url(#clip0_49_705)">
<path d="M9.87675 14.1235C8.70575 12.9525 8.70575 11.0515 9.87675 9.87849C11.0477 8.70749 12.9488 8.70749 14.1217 9.87849C15.2928 11.0495 15.2928 12.9505 14.1217 14.1235C12.9488 15.2965 11.0488 15.2965 9.87675 14.1235Z" stroke="#949391" stroke-width="1.5" stroke-linecap="round" stroke-linejoin="round"/>
<path d="M21 12C21 12.659 20.848 13.311 20.554 13.912C19.039 17.009 15.691 19 12 19C8.309 19 4.961 17.009 3.446 13.912C3.152 13.311 3 12.659 3 12C3 11.341 3.152 10.689 3.446 10.088C4.961 6.991 8.309 5 12 5C15.691 5 19.039 6.991 20.554 10.088C20.848 10.689 21 11.341 21 12V12Z" stroke="#949391" stroke-width="1.5" stroke-linecap="round" stroke-linejoin="round"/>
</g>
<defs>
<clipPath id="clip0_49_705">
<rect width="24" height="24" fill="white"/>
</clipPath>
</defs>
</svg>
