<svg width="24" height="24" viewBox="0 0 24 24" fill="none" xmlns="http://www.w3.org/2000/svg">
<g clip-path="url(#clip0_42_480)">
<path d="M22.4989 18.5969C22.2944 18.2755 15.7183 7.9418 15.5157 7.62337V4.21875C16.6788 4.21875 17.6251 3.27248 17.6251 2.10938C17.6251 0.946266 16.6789 0 15.5157 0H8.48446C7.32135 0 6.37508 0.946266 6.37508 2.10938C6.37508 3.27248 7.32135 4.21875 8.48446 4.21875V7.62337L1.5013 18.5969C0.0102065 20.9401 1.69035 24 4.46732 24H19.5329C22.3103 24 23.9898 20.9397 22.4989 18.5969ZM9.78083 8.20561C9.8526 8.09278 9.89075 7.96186 9.89075 7.82812V4.21875C10.2791 4.21875 10.5939 3.90394 10.5939 3.51562C10.5939 3.12731 10.2791 2.8125 9.89075 2.8125H8.4845C8.0968 2.8125 7.78138 2.49708 7.78138 2.10938C7.78138 1.72167 8.0968 1.40625 8.4845 1.40625H15.5158C15.9035 1.40625 16.2189 1.72167 16.2189 2.10938C16.2189 2.49708 15.9035 2.8125 15.5158 2.8125H14.1095C13.7212 2.8125 13.4064 3.12731 13.4064 3.51562C13.4064 3.90394 13.7212 4.21875 14.1095 4.21875V7.82812C14.1095 7.96186 14.1476 8.09278 14.2194 8.20561L16.1311 11.2097C14.4949 10.8596 12.7542 11.1678 11.3024 12.1357L9.10536 13.6005C8.13078 14.2502 6.97897 14.5253 5.83972 14.3989L9.78083 8.20561ZM19.5329 22.5938H4.46732C2.80091 22.5938 1.79314 20.7576 2.68771 19.3519L5.0203 15.6864C5.47147 15.7858 5.92766 15.8358 6.38188 15.8358C7.61408 15.8358 8.83058 15.4737 9.88527 14.7705L12.0823 13.3058C13.6975 12.229 15.7722 12.2013 17.4114 13.2217L21.3124 19.3519C22.2072 20.7578 21.1991 22.5938 19.5329 22.5938Z" fill="#4200FF"/>
<path d="M7.78125 16.9688C6.61814 16.9688 5.67188 17.915 5.67188 19.0781C5.67188 20.2412 6.61814 21.1875 7.78125 21.1875C8.94436 21.1875 9.89062 20.2412 9.89062 19.0781C9.89062 17.915 8.94441 16.9688 7.78125 16.9688ZM7.78125 19.7812C7.39355 19.7812 7.07812 19.4658 7.07812 19.0781C7.07812 18.6904 7.39355 18.375 7.78125 18.375C8.16895 18.375 8.48438 18.6904 8.48438 19.0781C8.48438 19.4658 8.169 19.7812 7.78125 19.7812Z" fill="#4200FF"/>
<path d="M14.8125 14.1562C13.6494 14.1562 12.7031 15.1025 12.7031 16.2656C12.7031 17.4287 13.6494 18.375 14.8125 18.375C15.9756 18.375 16.9219 17.4287 16.9219 16.2656C16.9219 15.1025 15.9757 14.1562 14.8125 14.1562ZM14.8125 16.9688C14.4248 16.9688 14.1094 16.6533 14.1094 16.2656C14.1094 15.8779 14.4248 15.5625 14.8125 15.5625C15.2002 15.5625 15.5156 15.8779 15.5156 16.2656C15.5156 16.6533 15.2002 16.9688 14.8125 16.9688Z" fill="#4200FF"/>
<path d="M12 19.7812C12.3883 19.7812 12.7031 19.4665 12.7031 19.0781C12.7031 18.6898 12.3883 18.375 12 18.375C11.6117 18.375 11.2969 18.6898 11.2969 19.0781C11.2969 19.4665 11.6117 19.7812 12 19.7812Z" fill="#4200FF"/>
<path d="M17.625 19.7812C18.0133 19.7812 18.3281 19.4665 18.3281 19.0781C18.3281 18.6898 18.0133 18.375 17.625 18.375C17.2367 18.375 16.9219 18.6898 16.9219 19.0781C16.9219 19.4665 17.2367 19.7812 17.625 19.7812Z" fill="#4200FF"/>
<path d="M14.8125 21.1875C15.2008 21.1875 15.5156 20.8727 15.5156 20.4844C15.5156 20.096 15.2008 19.7812 14.8125 19.7812C14.4242 19.7812 14.1094 20.096 14.1094 20.4844C14.1094 20.8727 14.4242 21.1875 14.8125 21.1875Z" fill="#4200FF"/>
</g>
<defs>
<clipPath id="clip0_42_480">
<rect width="24" height="24" fill="white"/>
</clipPath>
</defs>
</svg>
