<svg width="24" height="24" viewBox="0 0 24 24" fill="none" xmlns="http://www.w3.org/2000/svg">
<path d="M22.8112 16.1975L21.1072 14.4524V8.4665L22.2197 8.05576C22.475 7.96143 22.6454 7.71341 22.6456 7.43533C22.6458 7.15734 22.4758 6.90896 22.2205 6.81432L12.0422 3.03943C11.9005 2.98686 11.7451 2.98686 11.6033 3.03943L1.42505 6.81432C1.17075 6.90866 1.00104 7.15549 1 7.43247C0.999059 7.70945 1.16701 7.95756 1.42058 8.05378L5.17694 9.47879V13.8284C5.17694 13.9634 5.21732 14.0952 5.29273 14.2059C5.33419 14.2668 5.72693 14.816 6.73247 15.3343C8.0028 15.9892 9.66897 16.3213 11.6846 16.3213C13.6988 16.3213 15.3734 15.9899 16.6618 15.3363C17.6773 14.8212 18.0831 14.2777 18.1261 14.2174C18.2065 14.1045 18.2499 13.9683 18.2499 13.8285V9.52139L19.8183 8.94231V14.4524L18.1142 16.1975C17.9934 16.3212 17.9254 16.4891 17.9254 16.6641C17.9254 16.8392 17.9933 17.0071 18.1142 17.1308L19.8183 18.8758V20.34C19.8183 20.7045 20.1068 21 20.4628 21C20.8187 21 21.1072 20.7045 21.1072 20.34V18.8758L22.8112 17.1308C23.0629 16.8731 23.0629 16.4552 22.8112 16.1975ZM11.8228 4.36193L20.1047 7.43348L11.6877 10.5411L3.5182 7.44188L11.8228 4.36193ZM16.9609 13.5654C14.7577 15.5956 8.21084 15.3628 6.46587 13.572V9.9678L11.4607 11.8627C11.54 11.8755 11.6148 11.9455 11.9032 11.8647L16.9609 9.99737V13.5654H16.9609ZM20.4627 17.6692L19.4813 16.6641L20.4627 15.659L21.4441 16.6641L20.4627 17.6692Z" fill="#4200FF"/>
</svg>
