<svg width="24" height="24" viewBox="0 0 24 24" fill="none" xmlns="http://www.w3.org/2000/svg">
<path d="M18.3639 5.63605C16.6641 3.93618 14.404 3 12 3C9.59602 3 7.33593 3.93618 5.63605 5.63605C3.93618 7.33593 3 9.59602 3 12C3 14.404 3.93618 16.6641 5.63605 18.3639C7.33593 20.0638 9.59602 21 12 21C14.404 21 16.6641 20.0638 18.3639 18.3639C20.0638 16.6641 21 14.404 21 12C21 9.59602 20.0638 7.33593 18.3639 5.63605ZM5.08227 15.6003C4.51907 14.5226 4.19999 13.2979 4.19999 12C4.19999 10.7021 4.51907 9.47743 5.08223 8.39972L7.94452 9.83089C7.59731 10.4775 7.39998 11.2161 7.39998 12C7.39998 12.7839 7.59731 13.5225 7.94455 14.1692L5.08227 15.6003ZM12 4.19999C13.2979 4.19999 14.5226 4.51907 15.6003 5.08223L14.1691 7.94452C13.5225 7.59731 12.7839 7.39998 12 7.39998C11.2161 7.39998 10.4775 7.59731 9.83082 7.94455L8.39965 5.08227C9.47743 4.51907 10.7021 4.19999 12 4.19999ZM15.4 12C15.4 13.8748 13.8747 15.4 12 15.4C10.1253 15.4 8.6 13.8747 8.6 12C8.6 10.1253 10.1253 8.6 12 8.6C13.8748 8.6 15.4 10.1253 15.4 12ZM12 19.8C10.7021 19.8 9.47743 19.4809 8.39972 18.9178L9.83089 16.0555C10.4775 16.4027 11.2161 16.6 12 16.6C12.7839 16.6 13.5225 16.4027 14.1692 16.0554L15.6004 18.9177C14.5226 19.4809 13.2979 19.8 12 19.8ZM16.0554 14.1692C16.4027 13.5225 16.6 12.7839 16.6 12C16.6 11.2161 16.4027 10.4775 16.0554 9.83082L18.9177 8.39965C19.4809 9.4774 19.8 10.7021 19.8 12C19.8 13.2979 19.4809 14.5225 18.9178 15.6002L16.0554 14.1692Z" fill="#4200FF"/>
</svg>
