<svg width="20" height="17" viewBox="0 0 20 17" fill="none" xmlns="http://www.w3.org/2000/svg">
<path d="M1 3.04341C1 3.63441 1.293 4.18741 1.782 4.51841L7.763 8.57141C9.118 9.48941 10.896 9.48941 12.251 8.57141L18.217 4.52741C18.707 4.19741 19 3.64441 19 3.05341V3.04341C19 2.05941 18.202 1.26141 17.218 1.26141H2.782C1.798 1.26141 1 2.05941 1 3.04341V3.04341Z" stroke="white" stroke-width="1.5" stroke-linecap="round" stroke-linejoin="round"/>
<path d="M1 3.26141V13.2614C1 14.3664 1.895 15.2614 3 15.2614H17C18.105 15.2614 19 14.3664 19 13.2614V3.26141" stroke="white" stroke-width="1.5" stroke-linecap="round" stroke-linejoin="round"/>
<path d="M1.586 14.6754L7.726 8.53542" stroke="white" stroke-width="1.5" stroke-linecap="round" stroke-linejoin="round"/>
<path d="M12.281 8.54241L18.411 14.6724" stroke="white" stroke-width="1.5" stroke-linecap="round" stroke-linejoin="round"/>
</svg>
