<svg width="21" height="21" viewBox="0 0 21 21" fill="none" xmlns="http://www.w3.org/2000/svg">
<path d="M18.3301 4H2.66992C1.74727 4 1 4.73168 1 5.625V15.375C1 16.2736 1.75276 17 2.66992 17H18.3301C19.245 17 20 16.2767 20 15.375V5.625C20 4.73327 19.2557 4 18.3301 4ZM18.0962 5.08333C17.755 5.41357 11.8835 11.097 11.6808 11.2933C11.3654 11.6002 10.9461 11.7692 10.5 11.7692C10.0539 11.7692 9.63461 11.6002 9.31814 11.2922C9.1818 11.1603 3.37511 5.53956 2.90379 5.08333H18.0962ZM2.11328 15.1545V5.84618L6.92407 10.5029L2.11328 15.1545ZM2.90449 15.9167L7.71338 11.2669L8.53198 12.0593C9.05767 12.5708 9.75659 12.8525 10.5 12.8525C11.2434 12.8525 11.9423 12.5708 12.467 12.0603L13.2866 11.2669L18.0955 15.9167H2.90449ZM18.8867 15.1545L14.0759 10.5029L18.8867 5.84618V15.1545Z" fill="#4200FF"/>
</svg>
