<svg width="24" height="25" viewBox="0 0 24 25" fill="none" xmlns="http://www.w3.org/2000/svg">
<path d="M20.4134 5.83319C19.3781 4.7103 17.9575 4.09186 16.413 4.09186C15.2585 4.09186 14.2012 4.45685 13.2704 5.17661C12.8008 5.53992 12.3752 5.98441 12 6.5032C11.6249 5.98456 11.1992 5.53992 10.7294 5.17661C9.79877 4.45685 8.74149 4.09186 7.58701 4.09186C6.04251 4.09186 4.62177 4.7103 3.58646 5.83319C2.56351 6.94296 2 8.45908 2 10.1024C2 11.7939 2.63034 13.3422 3.98364 14.9752C5.19427 16.4359 6.93423 17.9188 8.94916 19.6358C9.63718 20.2222 10.4171 20.8869 11.2268 21.5949C11.4408 21.7823 11.7153 21.8854 12 21.8854C12.2846 21.8854 12.5592 21.7823 12.7729 21.5952C13.5826 20.8871 14.363 20.2221 15.0513 19.6354C17.0659 17.9186 18.8059 16.4359 20.0165 14.975C21.3698 13.3422 22 11.7939 22 10.1023C22 8.45908 21.4365 6.94296 20.4134 5.83319Z" fill="white"/>
</svg>
