<svg width="58" height="57" viewBox="0 0 58 57" fill="none" xmlns="http://www.w3.org/2000/svg">
<path d="M28.8022 27.9462L8.57852 10.1463C7.91204 9.55925 8.14692 8.49057 9.00425 8.21984L32.4546 0.841682C34.0137 0.351515 35.7254 0.707741 36.938 1.77642L55.3706 17.9975C55.9637 18.519 55.7523 19.4652 54.9919 19.7046L28.8022 27.9462Z" fill="#7D7D7D"/>
<g opacity="0.6">
<path d="M54.9919 19.7074L54.9273 19.7274L36.6268 3.62308C35.4113 2.5544 33.7025 2.19818 32.1435 2.68835L8.69601 10.0665C8.64316 10.0836 8.59618 10.1007 8.55214 10.1235C7.91795 9.53074 8.16165 8.48771 9.0043 8.22267L32.4547 0.84452C34.0137 0.354353 35.7255 0.710579 36.938 1.77926L55.3678 18.0004C55.9608 18.5219 55.7524 19.468 54.9919 19.7074Z" fill="#F7F5F2"/>
</g>
<g opacity="0.2">
<path d="M54.9921 19.7074L28.8024 27.9462L8.57873 10.1463C7.90931 9.55922 8.14713 8.49054 9.00446 8.21981L10.0791 7.88353C16.0275 11.3033 26.2891 13.5632 37.9482 13.5632C41.9912 13.5632 45.8668 13.2925 49.4517 12.7938L55.3679 18.0003C55.961 18.5219 55.7525 19.468 54.9921 19.7074Z" fill="#141414"/>
</g>
<path d="M28.8022 28.5788C28.6437 28.5788 28.4851 28.5218 28.3647 28.4164L8.14108 10.6165C7.6537 10.1862 7.44524 9.55922 7.58323 8.93511C7.72123 8.311 8.17632 7.82084 8.80463 7.6242L32.255 0.246046C34.0313 -0.312517 35.9926 0.0950059 37.3755 1.31472L55.8082 17.5387C56.2603 17.9377 56.4541 18.519 56.3249 19.0975C56.1957 19.676 55.7729 20.132 55.1945 20.3144L29.0048 28.5532C28.9373 28.5703 28.8697 28.5788 28.8022 28.5788ZM33.861 1.26058C33.4559 1.26058 33.0507 1.32042 32.6543 1.44582L9.20394 8.82397C8.94557 8.90661 8.8751 9.11465 8.85455 9.20014C8.83693 9.28564 8.81345 9.50507 9.0131 9.68176L28.9578 27.2366L54.7893 19.1118C54.9802 19.0519 55.036 18.8952 55.0507 18.8325C55.0653 18.7698 55.08 18.6045 54.9332 18.4734L36.5006 2.24661C35.7695 1.60255 34.8211 1.26058 33.861 1.26058Z" fill="#141414"/>
<path d="M43.5564 20.3725C44.2255 16.9072 38.8425 13.0203 31.5333 11.6907C24.224 10.3612 17.7563 12.0925 17.0873 15.5578C16.4182 19.0231 21.8011 22.91 29.1104 24.2396C36.4196 25.5691 42.8873 23.8378 43.5564 20.3725Z" fill="#3D3D3D"/>
<path d="M33.9669 25.3272C32.399 25.3272 30.7226 25.1762 28.9903 24.8627C21.2097 23.4463 15.7016 19.3084 16.4474 15.4412C16.8203 13.5147 18.6671 12.0157 21.6472 11.2178C24.4687 10.4626 28.0214 10.4113 31.6533 11.0696C35.2823 11.7308 38.5765 13.0274 40.9254 14.7231C43.4064 16.5156 44.5691 18.5618 44.1962 20.4882C43.6178 23.4976 39.4515 25.3272 33.9669 25.3272ZM26.706 11.8733C24.9972 11.8733 23.3971 12.0613 21.9966 12.4375C19.5567 13.0901 18.0006 14.2728 17.7304 15.6777C17.1374 18.7441 22.4047 22.3805 29.234 23.623C36.0603 24.8655 42.3288 23.3238 42.9219 20.2602C43.192 18.8553 42.185 17.2081 40.1532 15.7404C37.957 14.156 34.8565 12.9391 31.4155 12.3121C29.8065 12.0186 28.2151 11.8733 26.706 11.8733Z" fill="#141414"/>
<path d="M46.6242 52.4631C41.9441 55.5181 33.588 57.5187 23.2296 55.6463C12.7977 54.2214 5.53391 49.7444 2.09578 45.4013C-1.33942 41.061 2.20147 37.4446 3.98954 37.0998C3.98954 37.0998 4.43582 33.5717 6.27967 29.4309C8.31143 24.8656 12.0432 19.5592 18.7492 17.4276C21.7733 16.4643 25.4052 16.148 29.7623 16.8376C53.107 20.5395 47.549 44.0077 47.549 44.0077C49.1345 44.8855 51.3043 49.4081 46.6242 52.4631Z" fill="#FF9600"/>
<g opacity="0.2">
<path d="M17.6951 20.7191C18.9899 27.3848 14.1953 32.3549 10.8276 32.6028C9.19516 32.7225 7.54802 31.118 6.28258 29.4338C8.31434 24.8684 12.0461 19.5621 18.7521 17.4304L17.6951 20.7191Z" fill="#141414"/>
</g>
<path d="M36.4332 40.7817C37.5472 40.7817 38.4502 39.5645 38.4502 38.063C38.4502 36.5615 37.5472 35.3443 36.4332 35.3443C35.3192 35.3443 34.4161 36.5615 34.4161 38.063C34.4161 39.5645 35.3192 40.7817 36.4332 40.7817Z" fill="#141414"/>
<path d="M36.4332 41.4115C34.9387 41.4115 33.7643 39.941 33.7643 38.063C33.7643 36.185 34.9358 34.7145 36.4332 34.7145C37.9277 34.7145 39.1021 36.185 39.1021 38.063C39.1021 39.941 37.9277 41.4115 36.4332 41.4115ZM36.4332 35.9769C35.6933 35.9769 35.0679 36.9316 35.0679 38.063C35.0679 39.1944 35.6933 40.1491 36.4332 40.1491C37.1731 40.1491 37.7985 39.1944 37.7985 38.063C37.7985 36.9345 37.1731 35.9769 36.4332 35.9769Z" fill="#141414"/>
<path d="M33.911 39.1402C33.7554 38.2768 33.7554 37.3477 34.0578 36.4301C34.1342 36.2021 34.2311 35.977 34.3514 35.7575C34.4689 35.5409 34.6245 35.3215 34.7918 35.1306C34.9621 34.9368 35.153 34.7601 35.3614 34.6091C35.5728 34.458 35.7989 34.3298 36.0367 34.2243C36.2746 34.1189 36.5271 34.0362 36.7854 33.9878C37.0467 33.9422 37.3169 33.9251 37.5811 33.9422C38.1184 33.9678 38.6293 34.1645 39.0521 34.4267C39.4719 34.7031 39.8155 35.0508 40.0709 35.4326C40.3293 35.8174 40.5172 36.2277 40.6287 36.6524C40.6728 36.8205 40.5671 36.9943 40.3939 37.0371C40.2559 37.0713 40.1179 37.0143 40.0415 36.906L40.0357 36.8974C39.8125 36.5754 39.5776 36.279 39.3104 36.0254C39.2459 35.9599 39.1754 35.9029 39.1079 35.8459C39.0345 35.7946 38.9669 35.7347 38.8935 35.6863C38.7526 35.5808 38.5999 35.5039 38.4502 35.4326C37.8424 35.1562 37.2141 35.1876 36.6474 35.4725C36.3685 35.6122 36.1189 35.8145 35.9193 36.0482C35.8165 36.1679 35.7373 36.2876 35.658 36.4301C35.5787 36.5697 35.5112 36.7208 35.4554 36.8775C35.2293 37.5102 35.1765 38.2454 35.2 38.9949V39.0063C35.2117 39.3568 34.9269 39.6475 34.5687 39.6589C34.2457 39.6732 33.9668 39.4452 33.911 39.1402Z" fill="#141414"/>
<path d="M19.2465 34.5243C19.5544 33.0528 18.9189 31.6855 17.8272 31.4703C16.7355 31.2551 15.6009 32.2736 15.293 33.745C14.9852 35.2165 15.6207 36.5838 16.7124 36.799C17.8041 37.0142 18.9387 35.9957 19.2465 34.5243Z" fill="#141414"/>
<path d="M17.0141 37.4588C16.8703 37.4588 16.7264 37.4446 16.5796 37.4161C15.8515 37.2736 15.2319 36.7578 14.8826 36.0026C14.5596 35.3072 14.4774 34.4608 14.6535 33.6201C14.8297 32.7795 15.2437 32.0328 15.8221 31.5141C16.4504 30.9527 17.2255 30.7105 17.9537 30.8558C18.6818 30.9983 19.3013 31.5141 19.6507 32.2693C19.9737 32.9647 20.0559 33.8111 19.8797 34.6518C19.5362 36.3075 18.3236 37.4588 17.0141 37.4588ZM17.5309 32.0755C17.1727 32.0755 16.8673 32.295 16.7059 32.4403C16.333 32.7766 16.0482 33.2981 15.9278 33.8709C15.8074 34.4437 15.8603 35.0336 16.0687 35.4839C16.1715 35.7091 16.4122 36.0966 16.838 36.1793C17.5632 36.3218 18.3735 35.5067 18.6055 34.3981C18.7259 33.8253 18.673 33.2354 18.4646 32.7852C18.3618 32.56 18.121 32.1724 17.6924 32.0898C17.6395 32.0812 17.5837 32.0755 17.5309 32.0755Z" fill="#141414"/>
<path d="M18.2793 35.2902C18.4643 34.5635 18.5729 33.8339 18.4936 33.1613C18.4701 32.9932 18.4437 32.8308 18.3967 32.674C18.3527 32.5144 18.2969 32.3776 18.2235 32.2352C18.153 32.0955 18.0649 31.9616 17.9651 31.8362C17.8624 31.7136 17.7478 31.5996 17.6245 31.4971C17.1254 31.0781 16.4677 30.91 15.7866 31.0667C15.4489 31.1494 15.1054 31.2947 14.7883 31.5028C14.4683 31.7079 14.1747 31.9644 13.8957 32.2494L13.8928 32.2551C13.8018 32.3492 13.652 32.352 13.5551 32.2665C13.4759 32.1924 13.4583 32.0784 13.5082 31.9901C13.9163 31.2349 14.5622 30.5395 15.4753 30.1662C15.7043 30.0807 15.9451 30.0066 16.1976 29.9753C16.4501 29.9439 16.7085 29.9325 16.9669 29.9667C17.4865 30.0209 17.9769 30.2232 18.3967 30.5053C18.8195 30.7875 19.1689 31.1665 19.4273 31.5997C19.5565 31.8134 19.6592 32.0556 19.7356 32.2865C19.809 32.5201 19.8648 32.7567 19.8941 32.9932C20.0174 33.9422 19.8354 34.857 19.5154 35.6749C19.3862 36.0026 19.0104 36.165 18.6756 36.0425C18.3644 35.9285 18.1971 35.6065 18.2734 35.3015L18.2793 35.2902Z" fill="#141414"/>
<path d="M19.0878 33.7242C19.2324 33.0332 18.9927 32.4027 18.5525 32.316C18.1123 32.2292 17.6383 32.7191 17.4938 33.4101C17.3492 34.1011 17.5888 34.7316 18.029 34.8183C18.4692 34.9051 18.9432 34.4152 19.0878 33.7242Z" fill="#F7F5F2"/>
<g opacity="0.35">
<path d="M15.4667 35.5837C15.7018 35.5837 15.8924 35.1307 15.8924 34.572C15.8924 34.0133 15.7018 33.5603 15.4667 33.5603C15.2316 33.5603 15.041 34.0133 15.041 34.572C15.041 35.1307 15.2316 35.5837 15.4667 35.5837Z" fill="#F7F5F2"/>
</g>
<g opacity="0.35">
<path d="M37.4578 39.1317C37.2317 39.6446 37.2258 40.1348 37.4431 40.2232C37.6604 40.3115 38.0186 39.9695 38.2417 39.4537C38.4678 38.9407 38.4736 38.4506 38.2564 38.3622C38.0391 38.2739 37.6838 38.6187 37.4578 39.1317Z" fill="#F7F5F2"/>
</g>
<path d="M36.7917 37.0039C36.9285 36.3499 36.6465 35.7423 36.1618 35.6468C35.6771 35.5512 35.1733 36.004 35.0365 36.6579C34.8997 37.3119 35.1817 37.9195 35.6663 38.0151C36.151 38.1106 36.6549 37.6579 36.7917 37.0039Z" fill="#F7F5F2"/>
<g opacity="0.6">
<path d="M48.104 39.2941C47.8867 32.0613 44.9154 21.3175 29.7536 18.9123C28.7201 18.747 27.7277 18.6416 26.7735 18.5874C26.8058 18.653 26.8234 18.7214 26.8234 18.7926C26.8234 19.4253 25.4669 19.9382 23.7904 19.9382C22.2783 19.9382 21.0217 19.5193 20.7956 18.9693C6.16226 21.9245 3.98369 39.1773 3.98369 39.1773C2.91497 39.3825 1.22673 40.7532 0.765764 42.7452C0.0963405 39.6675 2.58613 37.3734 3.9925 37.1026C3.9925 37.1026 7.00785 13.2326 29.7624 16.8405C46.4569 19.4851 48.3712 32.2409 48.104 39.2941Z" fill="#F7F5F2"/>
</g>
<path d="M47.8602 44.2186C47.7545 44.1331 47.6517 44.0618 47.549 44.0049C47.549 44.0049 47.9982 42.1012 48.1068 39.2913C48.1656 41.2833 48.0187 43.0074 47.8602 44.2186Z" fill="#FFCF69"/>
<path d="M47.549 44.0077C45.7668 42.8564 43.603 42.1525 38.3621 42.654C38.3621 42.654 34.4894 36.5241 26.6413 35.3785C18.8284 34.0391 13.1471 38.6558 13.1471 38.6558C8.34078 36.5612 6.05946 36.5612 3.99246 37.1026C2.23082 37.5643 -1.3365 41.061 2.0987 45.4041C5.5339 49.7472 12.8007 54.2243 23.2325 55.6492C33.591 57.5215 41.9441 55.5181 46.6271 52.4659C51.3043 49.4081 49.067 44.988 47.549 44.0077Z" fill="#F7F5F2"/>
<path d="M5.07084 32.6297C5.06751 32.6297 5.06418 32.6327 5.06418 32.6327C5.06751 32.6237 5.07084 32.6118 5.07417 32.6028C5.07084 32.6207 5.07084 32.6297 5.07084 32.6297Z" fill="#FFCF69"/>
<g opacity="0.2">
<path d="M46.6243 52.4631C41.9442 55.5181 33.5881 57.5187 23.2297 55.6463C12.7978 54.2214 5.53398 49.7444 2.09585 45.4013C-0.167862 42.5401 0.598454 39.9923 1.8962 38.4905C0.892061 39.1374 2.54507 49.6532 24.2162 53.0445C40.8431 55.6463 48.6678 49.1459 49.2932 46.6238C49.7541 48.3907 49.3577 50.6791 46.6243 52.4631Z" fill="#141414"/>
</g>
<path d="M23.2324 56.279C23.2031 56.279 23.1708 56.2761 23.1414 56.2733C13.8312 55.0023 5.77165 51.0809 1.58188 45.7888C1.36167 45.5124 1.41746 45.1163 1.70226 44.9025C1.98706 44.6888 2.39517 44.743 2.61537 45.0194C6.60256 50.0578 14.345 53.7968 23.3235 55.0222C23.6787 55.0707 23.9283 55.3898 23.8784 55.7347C23.8285 56.051 23.5495 56.279 23.2324 56.279Z" fill="#141414"/>
<path d="M38.1653 42.7709C37.9921 42.5572 37.8013 42.332 37.6045 42.124C37.4108 41.9103 37.214 41.7022 37.0085 41.4999C36.6004 41.0924 36.1776 40.7019 35.7372 40.3315C34.8652 39.5848 33.9227 38.9237 32.9391 38.3394C32.6925 38.197 32.4429 38.0573 32.1875 37.9262C32.0642 37.8578 31.935 37.7923 31.8087 37.7296C31.6796 37.6669 31.5533 37.6013 31.4241 37.5415C30.9074 37.2993 30.3789 37.0855 29.8445 36.8946C29.3072 36.7094 28.764 36.5355 28.2091 36.4073C27.6601 36.2619 27.0963 36.1679 26.5238 36.0739C25.9513 35.9827 25.3876 35.9057 24.818 35.8715C24.2484 35.8231 23.6788 35.8259 23.1092 35.8316C22.5396 35.8487 21.967 35.8915 21.4004 35.9627C20.8337 36.0425 20.2671 36.1308 19.7063 36.2562C18.5876 36.5099 17.4807 36.849 16.412 37.2907C15.8747 37.5045 15.3491 37.7495 14.8324 38.0117C14.574 38.14 14.3186 38.2796 14.0661 38.4221C13.8136 38.5617 13.5611 38.7156 13.3291 38.8638L13.3174 38.8724C13.1882 38.955 13.015 38.9208 12.9269 38.7954C12.8505 38.6843 12.8711 38.5361 12.968 38.4449C13.426 38.026 13.9075 37.6754 14.4125 37.3363C14.9146 36.9972 15.4431 36.698 15.9804 36.413C17.0609 35.8544 18.2059 35.4013 19.395 35.0707C19.9881 34.9054 20.593 34.7715 21.2037 34.6717C21.8144 34.5748 22.4339 34.5065 23.0534 34.4694C24.2895 34.401 25.5549 34.4837 26.7616 34.686C27.3635 34.7829 27.9772 34.8997 28.5761 35.0622C29.178 35.2161 29.7652 35.4155 30.3436 35.635C31.4916 36.0938 32.5956 36.6552 33.6056 37.3449C34.1106 37.6897 34.6009 38.0516 35.0648 38.442C35.5287 38.8325 35.9691 39.2485 36.389 39.6789C36.803 40.1149 37.1994 40.5651 37.5634 41.0411C37.9275 41.5198 38.2652 42.0014 38.5588 42.5372C38.6175 42.6455 38.5764 42.7823 38.4619 42.8393C38.362 42.8906 38.2387 42.8621 38.1712 42.7794L38.1653 42.7709Z" fill="#141414"/>
<path d="M31.1129 57C28.5262 57 25.8397 56.7606 23.1268 56.2705C13.8224 54.9966 5.77166 51.0781 1.58189 45.7889C-0.382336 43.3067 -0.162128 41.1608 0.366364 39.7957C0.994683 38.177 2.31298 37.0285 3.41107 36.6153C3.5608 35.7034 4.01589 33.3836 5.10518 30.5823C6.38236 27.2936 8.81343 22.7111 13.1353 19.5649C17.6275 16.2933 23.2589 15.1677 29.8709 16.2164C36.7501 17.3079 41.853 20.1947 45.0386 24.7972C48.0217 29.1089 48.7175 34.1417 48.7763 37.6042C48.8262 40.5367 48.4503 42.8279 48.2742 43.7313C49.1756 44.4637 50.0446 45.957 50.1092 47.6811C50.165 49.1374 49.6659 51.2405 46.9911 52.9875C42.9599 55.615 37.3256 57 31.1129 57ZM25.2642 17.0998C20.8983 17.0998 17.0931 18.2597 13.9193 20.568C6.11225 26.2449 4.65302 37.0684 4.63834 37.1767C4.60311 37.4475 4.39465 37.6669 4.11866 37.7182C3.41106 37.855 2.13681 38.804 1.58189 40.2374C1.16791 41.3004 1.0123 42.9932 2.61246 45.0166C6.59964 50.055 14.342 53.794 23.3205 55.0194C23.3293 55.0194 23.3382 55.0222 23.3499 55.0251C32.2638 56.6352 40.8283 55.481 46.26 51.9359C48.4386 50.5138 48.8467 48.861 48.8027 47.7239C48.7469 46.1935 47.8484 44.8997 47.2231 44.552C46.9735 44.4152 46.8473 44.1331 46.9118 43.8624C46.9353 43.7569 49.3282 33.2582 43.9464 25.4897C40.9692 21.1922 36.16 18.4877 29.6536 17.4589C28.1357 17.2195 26.6706 17.0998 25.2642 17.0998Z" fill="#141414"/>
<path d="M26.3506 35.4355C32.4811 36.4073 31.3331 42.0556 25.596 41.0325C19.8002 40.0009 21.1508 34.6119 26.3506 35.4355Z" fill="#141414"/>
<path d="M28.7071 36.9136C28.7655 36.5768 27.8367 36.1444 26.6326 35.9478C25.4286 35.7512 24.4052 35.8648 24.3468 36.2016C24.2884 36.5384 25.2172 36.9708 26.4212 37.1674C27.6253 37.364 28.6487 37.2504 28.7071 36.9136Z" fill="#F7F5F2"/>
<path d="M53.0132 29.7758C52.0414 32.731 45.6261 37.0912 43.2273 36.4215C40.8315 35.7518 39.4134 29.6589 43.8498 24.2785C43.8498 24.2785 42.0764 21.9873 40.1826 20.8017C40.1826 20.8017 40.7111 20.5994 41.4774 20.3315C43.2185 19.7217 46.1986 18.7641 47.053 19.0263C48.0219 19.3227 51.7507 23.9707 52.8312 27.3819C53.1248 28.3053 53.2217 29.1431 53.0132 29.7758Z" fill="#FF9600"/>
<g opacity="0.6">
<path d="M53.0131 29.7758C52.9515 29.9582 52.8722 30.1463 52.7724 30.3372C52.7401 29.924 52.6403 29.468 52.4876 28.9892C51.4071 25.578 47.6783 20.93 46.7094 20.6336C45.9137 20.3885 43.2771 21.2036 41.5126 21.8077C41.0927 21.4373 40.6405 21.0867 40.1796 20.7989C40.1796 20.7989 40.7081 20.5966 41.4744 20.3287C43.2155 19.7188 46.1956 18.7613 47.05 19.0235C48.0189 19.3198 51.7477 23.9679 52.8282 27.3791C53.1247 28.3053 53.2216 29.1431 53.0131 29.7758Z" fill="#F7F5F2"/>
</g>
<g opacity="0.2">
<path d="M53.0132 29.7758C52.0414 32.731 45.6261 37.0912 43.2273 36.4215C40.8315 35.7518 39.4134 29.6589 43.8498 24.2785C43.8498 24.2785 42.0764 21.9873 40.1826 20.8017C40.1826 20.8017 40.7111 20.5994 41.4774 20.3315C42.3553 21.138 43.7441 21.993 45.6349 21.9388C46.043 21.9274 46.3102 22.352 46.1047 22.694C44.8245 24.8513 42 30.397 45.6261 32.201C48.3625 33.5603 51.3808 29.4794 52.8283 27.3819C53.1248 28.3053 53.2217 29.1431 53.0132 29.7758Z" fill="#141414"/>
</g>
<path d="M43.7851 37.1197C43.5268 37.1197 43.2801 37.0912 43.0482 37.0257C42.0294 36.7407 41.1779 35.7575 40.7081 34.3298C39.9506 32.0186 40.1268 28.046 43.0217 24.2785C42.4492 23.6003 41.1573 22.1582 39.8273 21.3261C39.6218 21.1979 39.5073 20.9699 39.5337 20.7333C39.5601 20.4968 39.7157 20.2945 39.9418 20.209C41.3159 19.6846 45.8991 18.0032 47.2467 18.4164C48.4124 18.7727 51.0196 22.1896 52.4025 24.7772C53.6092 27.0371 54.0232 28.7812 53.6327 29.9639C53.0455 31.7479 50.8699 33.7199 49.0289 34.971C48.2245 35.5181 45.7024 37.1197 43.7851 37.1197ZM41.5244 20.9784C43.0687 22.2238 44.3077 23.814 44.3694 23.8966C44.5485 24.1275 44.5426 24.4466 44.3577 24.6689C41.4803 28.1628 41.263 31.8504 41.9501 33.9479C42.2789 34.951 42.825 35.6492 43.4093 35.8117C44.2931 36.0568 46.2955 35.2873 48.2832 33.9394C50.3795 32.5173 51.9914 30.8074 52.3937 29.582C52.7372 28.5333 51.9768 26.3874 50.359 23.8453C48.8058 21.4059 47.2233 19.773 46.8474 19.6191C46.3307 19.4595 43.8732 20.1463 41.5244 20.9784Z" fill="#141414"/>
<path d="M43.8496 24.9055C43.7116 24.9055 43.5736 24.8627 43.4562 24.7744C43.1714 24.5635 43.1156 24.1674 43.3329 23.8881C43.371 23.8425 44.246 22.7311 45.1826 21.8875C45.4468 21.651 45.8579 21.6652 46.1016 21.9217C46.3453 22.1782 46.3306 22.5772 46.0664 22.8137C45.212 23.5831 44.3722 24.6461 44.3634 24.6575C44.2372 24.8228 44.0434 24.9055 43.8496 24.9055Z" fill="#141414"/>
<path d="M15.4051 18.7898C17.2137 25.4526 13.3763 30.4683 10.9041 30.1377C8.4349 29.8071 4.38606 23.301 4.73252 20.2147C4.76775 19.8926 4.89107 19.5564 5.08191 19.2115C6.72905 16.2363 13.5202 12.6028 14.6682 12.7254C15.5784 12.8251 17.9801 14.9568 19.3013 16.1879C19.8445 16.6952 20.2056 17.0514 20.2056 17.0514C17.983 17.3905 15.4051 18.7898 15.4051 18.7898Z" fill="#FF9600"/>
<g opacity="0.6">
<path d="M20.2084 17.0514C19.8061 17.1141 19.3892 17.211 18.9811 17.325C17.6217 16.0768 15.5106 14.2529 14.6709 14.1617C13.5229 14.0363 6.7318 17.6698 5.08467 20.6478C4.94373 20.9043 4.83804 21.1551 4.77931 21.4002C4.71178 20.9699 4.69417 20.5709 4.73234 20.2147C4.76757 19.8926 4.89089 19.5564 5.08173 19.2115C6.72886 16.2363 13.52 12.6028 14.668 12.7254C15.5782 12.8251 17.9799 14.9568 19.3011 16.1879C19.8472 16.698 20.2084 17.0514 20.2084 17.0514Z" fill="#F7F5F2"/>
</g>
<g opacity="0.2">
<path d="M15.4051 18.7898C17.2137 25.4526 13.3763 30.4683 10.9041 30.1377C8.4349 29.8071 4.38606 23.301 4.73252 20.2147C4.76775 19.8927 4.89107 19.5564 5.08191 19.2116C5.62802 22.6142 6.84942 26.5299 9.54767 25.5923C12.8684 24.4381 13.5613 19.2629 13.6905 16.4672C13.7286 15.6436 14.5713 15.0993 15.3758 15.3643C16.744 15.8174 18.212 16.0597 19.3042 16.1879C19.8474 16.6952 20.2085 17.0514 20.2085 17.0514C17.983 17.3905 15.4051 18.7898 15.4051 18.7898Z" fill="#141414"/>
</g>
<path d="M11.1388 30.7846C11.0302 30.7846 10.9216 30.7789 10.8159 30.7647C8.81055 30.4968 6.77879 27.4617 6.20625 26.5384C5.04357 24.6718 3.87795 22.0129 4.08641 20.1491C4.22441 18.9152 5.33131 17.4817 7.37775 15.8887C9.72073 14.0648 13.5259 11.9702 14.7443 12.0984C16.1478 12.2495 19.6358 15.5894 20.6723 16.6097C20.8426 16.7778 20.9042 17.0257 20.8279 17.2509C20.7515 17.476 20.5519 17.6413 20.3111 17.6783C18.7491 17.9149 16.9669 18.7242 16.1595 19.1203C17.2341 23.7028 15.7397 27.4019 14.0808 29.2201C13.1589 30.226 12.1048 30.7846 11.1388 30.7846ZM14.5946 13.3523C14.1836 13.3523 12.0637 14.2215 9.63265 15.8374C7.09001 17.5273 5.5016 19.1887 5.37828 20.2831C5.23442 21.5598 5.99779 23.757 7.31903 25.8829C8.57273 27.8978 10.0848 29.3911 10.995 29.5107C11.5969 29.5905 12.3867 29.1688 13.109 28.3794C14.6122 26.7322 15.9511 23.2754 14.7796 18.9494C14.7032 18.6701 14.8324 18.3765 15.0908 18.2369C15.1818 18.1885 16.9787 17.2195 18.9077 16.6895C17.1079 15.0052 15.1436 13.4122 14.6005 13.3523C14.5975 13.3523 14.5975 13.3523 14.5946 13.3523Z" fill="#141414"/>
<path d="M15.405 19.4224C15.1114 19.4224 14.8442 19.2286 14.7737 18.938C14.7708 18.9237 14.4449 17.6242 13.9868 16.584C13.8459 16.2648 13.9986 15.8915 14.3274 15.7547C14.6563 15.6179 15.0409 15.7661 15.1818 16.0853C15.6868 17.2252 16.0245 18.5846 16.0392 18.6444C16.1243 18.9836 15.907 19.3255 15.5576 19.4053C15.5077 19.4167 15.4549 19.4224 15.405 19.4224Z" fill="#141414"/>
<path d="M13.1208 43.0673C7.26039 43.0673 2.49222 38.4392 2.49222 32.751C2.49222 27.0628 7.26039 22.4347 13.1208 22.4347C18.9812 22.4347 23.7494 27.0628 23.7494 32.751C23.7494 38.4392 18.9812 43.0673 13.1208 43.0673ZM13.1208 23.6943C7.97679 23.6943 3.7929 27.7553 3.7929 32.7481C3.7929 37.741 7.97679 41.802 13.1208 41.802C18.2648 41.802 22.4487 37.741 22.4487 32.7481C22.4487 27.7553 18.2648 23.6943 13.1208 23.6943Z" fill="#141414"/>
<path d="M40.2706 47.8379C34.4102 47.8379 29.642 43.2098 29.642 37.5215C29.642 31.8333 34.4102 27.2052 40.2706 27.2052C46.131 27.2052 50.8992 31.8333 50.8992 37.5215C50.8992 43.2098 46.1339 47.8379 40.2706 47.8379ZM40.2706 28.4677C35.1266 28.4677 30.9427 32.5287 30.9427 37.5215C30.9427 42.5144 35.1266 46.5754 40.2706 46.5754C45.4146 46.5754 49.5985 42.5144 49.5985 37.5215C49.6014 32.5287 45.4146 28.4677 40.2706 28.4677Z" fill="#141414"/>
<path d="M25.3261 43.3066C25.2909 43.3066 25.2586 43.3038 25.2234 43.2981C24.8681 43.244 24.6274 42.9191 24.6831 42.5742L24.9533 40.9299C25.009 40.5851 25.3438 40.3514 25.699 40.4055C26.0543 40.4597 26.295 40.7846 26.2393 41.1294L25.9691 42.7737C25.9163 43.0872 25.6403 43.3066 25.3261 43.3066Z" fill="#141414"/>
<path d="M19.8679 42.1297L19.8943 42.2009L19.9296 42.2864C19.9531 42.3434 19.9824 42.4004 20.0118 42.4574C20.0734 42.5714 20.1439 42.6768 20.2232 42.7794C20.3817 42.9818 20.5726 43.1528 20.784 43.2924C20.9983 43.4292 21.2332 43.5318 21.4828 43.6059C21.7353 43.6743 22.0024 43.7199 22.2461 43.7256C22.7453 43.7341 23.2209 43.5888 23.6466 43.3209C23.861 43.187 24.0606 43.0245 24.2427 42.845C24.3337 42.7538 24.4218 42.6598 24.504 42.56C24.5451 42.5116 24.5832 42.4603 24.6214 42.4118L24.6743 42.3377C24.6889 42.3178 24.7124 42.2836 24.7124 42.2807L26.063 42.58C26.0601 42.5714 26.063 42.5914 26.063 42.5999L26.0689 42.6398C26.0718 42.6654 26.0777 42.6939 26.0836 42.7224C26.0953 42.7794 26.11 42.8393 26.1247 42.8991C26.157 43.016 26.1981 43.1357 26.2451 43.2497C26.3419 43.4805 26.4623 43.6971 26.615 43.8966C26.9145 44.2955 27.3226 44.6062 27.8129 44.8085C28.3091 45.0137 28.8523 45.1277 29.3749 45.0792C29.6362 45.0564 29.8917 44.9909 30.1354 44.8883C30.2557 44.837 30.3732 44.7743 30.4818 44.7031C30.5376 44.6689 30.5904 44.629 30.6404 44.5891L30.7138 44.5292L30.7695 44.4779L30.8077 44.4437C30.9575 44.3098 31.1923 44.3155 31.3303 44.4637C31.4566 44.5948 31.4625 44.7914 31.3538 44.9282C31.3127 44.9823 31.2863 45.008 31.254 45.045C31.2217 45.0792 31.1923 45.1106 31.16 45.1419C31.0954 45.2046 31.0309 45.2645 30.9604 45.3186C30.8224 45.4298 30.6756 45.5295 30.5229 45.6178C30.2146 45.7917 29.874 45.9199 29.5217 45.9883C29.1694 46.0596 28.8082 46.0767 28.453 46.0482C28.0977 46.0197 27.7571 45.9598 27.4166 45.8515C27.076 45.7461 26.7442 45.5951 26.4359 45.4041C26.1276 45.2103 25.8458 44.9766 25.5991 44.7088C25.3525 44.4409 25.147 44.1445 24.9767 43.8282C24.8915 43.6714 24.8181 43.5061 24.7535 43.338C24.7212 43.2525 24.6919 43.167 24.6655 43.0787C24.6508 43.0331 24.639 42.9903 24.6273 42.9419L24.6097 42.8706C24.6038 42.8421 24.5979 42.825 24.5921 42.7794L25.9426 43.0787C25.8986 43.1385 25.8781 43.1642 25.8458 43.2012L25.7577 43.3038C25.699 43.3694 25.6373 43.4349 25.5756 43.4976C25.4523 43.623 25.3231 43.7398 25.1881 43.851C24.918 44.0733 24.6214 44.2699 24.2984 44.4323C23.9784 44.5948 23.629 44.7202 23.2649 44.7914C22.9009 44.8626 22.5251 44.8769 22.161 44.837C21.791 44.7943 21.4563 44.7002 21.1275 44.5691C20.7987 44.4352 20.4845 44.2585 20.2085 44.0334C19.9325 43.8082 19.6947 43.5403 19.5127 43.244C19.4216 43.0958 19.3424 42.9419 19.2778 42.7823C19.2455 42.7025 19.2161 42.6199 19.1897 42.5372C19.1779 42.4945 19.1662 42.4517 19.1545 42.409C19.1427 42.3634 19.1339 42.3263 19.1251 42.2636C19.0899 42.0641 19.2308 41.8732 19.4363 41.839C19.6213 41.8077 19.8004 41.9159 19.8591 42.0812L19.8679 42.1297Z" fill="#141414"/>
<path d="M23.0533 46.1166C23.068 46.1194 23.1032 46.1422 23.1296 46.1536C23.159 46.1707 23.1884 46.185 23.2177 46.1992C23.2764 46.2306 23.341 46.2591 23.4027 46.2876C23.5289 46.3417 23.6552 46.3959 23.7873 46.4386C24.0486 46.5241 24.3158 46.5896 24.5859 46.6295C24.7239 46.6409 24.859 46.6694 24.9999 46.6694C25.0704 46.6723 25.1379 46.6837 25.2084 46.6837C25.2788 46.6837 25.3493 46.6808 25.4198 46.6837C25.4902 46.6894 25.5636 46.6837 25.6341 46.678L25.8514 46.6723C25.9982 46.6666 26.145 46.6466 26.2947 46.6495H26.3417C26.5531 46.6523 26.7234 46.8176 26.7234 47.0228C26.7234 47.1767 26.6265 47.3078 26.4885 47.3619C26.33 47.4275 26.1685 47.4816 26.0011 47.5301C25.8308 47.5643 25.6635 47.6127 25.4873 47.6241C25.1379 47.6697 24.7768 47.6526 24.4215 47.6013C24.0692 47.5358 23.7198 47.4275 23.3998 47.2594C23.2383 47.1796 23.0885 47.077 22.9447 46.9715C22.8742 46.9145 22.8037 46.8575 22.7421 46.792C22.7098 46.7606 22.6775 46.7293 22.6452 46.6922C22.6129 46.6552 22.5894 46.6238 22.5454 46.5754C22.4338 46.4386 22.4573 46.2391 22.5982 46.1337C22.6804 46.071 22.7861 46.051 22.8801 46.0767L23.0533 46.1166Z" fill="#141414"/>
<path d="M55.7964 40.3429C55.4382 40.3429 55.1476 40.0607 55.1446 39.7131L55.0595 18.9779C55.0595 18.6302 55.3472 18.3452 55.7084 18.3423H55.7113C56.0695 18.3423 56.3602 18.6245 56.3631 18.9722L56.4482 39.7074C56.4482 40.0579 56.1576 40.3429 55.7964 40.3429C55.7994 40.3429 55.7964 40.3429 55.7964 40.3429Z" fill="#141414"/>
<path d="M54.9802 40.1463L54.1874 41.4971C53.8498 42.0699 54.2785 42.7852 54.9596 42.7852H56.46C57.1235 42.7852 57.5522 42.1069 57.2498 41.5341L56.5422 40.1833C56.2221 39.5706 55.3296 39.5506 54.9802 40.1463Z" fill="#FFF761"/>
<path d="M56.46 43.4178H54.9597C54.4048 43.4178 53.9086 43.1414 53.6296 42.6769C53.3507 42.2123 53.3478 41.6566 53.6238 41.1893L54.4136 39.8385C54.6925 39.3597 55.221 39.0719 55.7876 39.0833C56.3543 39.0947 56.8652 39.4081 57.1236 39.8983L57.8312 41.2491C58.0748 41.7165 58.0543 42.2608 57.7724 42.7054C57.4906 43.1499 57.0002 43.4178 56.46 43.4178ZM55.5469 40.4597L54.7542 41.8105C54.6954 41.9103 54.7307 41.9958 54.7542 42.0385C54.7806 42.0813 54.8393 42.1525 54.9597 42.1525H56.46C56.5745 42.1525 56.6362 42.0841 56.6626 42.0442C56.689 42.0043 56.7243 41.9188 56.6714 41.8191L55.9638 40.4683C55.908 40.3628 55.8111 40.3429 55.7583 40.3429C55.7025 40.3429 55.6085 40.3571 55.5469 40.4597Z" fill="#141414"/>
</svg>
