<svg width="25" height="25" viewBox="0 0 25 25" fill="none" xmlns="http://www.w3.org/2000/svg">
<path d="M23.5703 22.2614C23.5703 22.8137 23.123 23.2614 22.5703 23.2614C22.0176 23.2614 21.5703 22.8137 21.5703 22.2614C21.5703 18.7326 19.5388 15.6085 16.3723 14.1312C15.2764 14.8433 13.9727 15.2614 12.5713 15.2614C11.1646 15.2614 9.8559 14.8405 8.75745 14.1234C7.81213 14.5696 6.9361 15.17 6.20703 15.8986C4.50684 17.5993 3.57031 19.8591 3.57031 22.2614C3.57031 22.8137 3.12305 23.2614 2.57031 23.2614C2.01758 23.2614 1.57031 22.8137 1.57031 22.2614C1.57031 19.3249 2.71484 16.5632 4.79297 14.4846C5.48834 13.7888 6.29651 13.1923 7.16357 12.7004C6.16937 11.4915 5.57129 9.94513 5.57129 8.26141C5.57129 4.40155 8.71191 1.26141 12.5713 1.26141C16.4307 1.26141 19.5713 4.40155 19.5713 8.26141C19.5713 9.94104 18.9756 11.4836 17.9858 12.6913C21.4186 14.624 23.5703 18.2352 23.5703 22.2614ZM12.5713 3.26141C9.81445 3.26141 7.57129 5.50458 7.57129 8.26141C7.57129 11.0182 9.81445 13.2614 12.5713 13.2614C15.3281 13.2614 17.5713 11.0182 17.5713 8.26141C17.5713 5.50458 15.3281 3.26141 12.5713 3.26141Z" fill="white"/>
</svg>
