<svg width="135" height="25" viewBox="0 0 135 25" fill="none" xmlns="http://www.w3.org/2000/svg">
<path d="M4.9896 2.1774C6.3936 2.1774 7.4574 2.5392 8.181 3.2628C8.9046 3.9864 9.2664 5.061 9.2664 6.4866V10.488H6.9174V6.4866C6.9174 5.7846 6.723 5.25 6.3342 4.8828C5.9562 4.5048 5.4 4.3158 4.6656 4.3158C4.158 4.3158 3.699 4.4346 3.2886 4.6722C2.8782 4.899 2.565 5.2122 2.349 5.6118V10.488H0V2.3718H2.187L2.2518 3.1494C2.9646 2.523 3.8772 2.199 4.9896 2.1774Z" fill="#F7F5F2"/>
<path d="M21.0752 7.1184H13.85C13.9256 7.626 14.174 8.0148 14.5952 8.2848C15.0164 8.5548 15.5834 8.6898 16.2962 8.6898C16.9442 8.6898 17.4734 8.6034 17.8838 8.4306C18.2942 8.2578 18.5318 8.0202 18.5966 7.7178H21.059C20.9402 8.6682 20.465 9.4026 19.6334 9.921C18.8126 10.4286 17.7002 10.6824 16.2962 10.6824C15.3026 10.6824 14.4386 10.5204 13.7042 10.1964C12.9698 9.8616 12.4082 9.3864 12.0194 8.7708C11.6306 8.1552 11.4362 7.4316 11.4362 6.6V6.2922C11.4362 5.4498 11.6306 4.7208 12.0194 4.1052C12.419 3.4788 12.9806 3.0036 13.7042 2.6796C14.4386 2.3448 15.3026 2.1774 16.2962 2.1774C17.8082 2.1774 18.98 2.5392 19.8116 3.2628C20.654 3.9756 21.0752 4.98 21.0752 6.276V7.1184ZM16.28 4.1376C15.6536 4.1376 15.1352 4.251 14.7248 4.4778C14.3144 4.7046 14.0444 5.0232 13.9148 5.4336H18.5966C18.467 5.0232 18.2024 4.7046 17.8028 4.4778C17.4032 4.251 16.8956 4.1376 16.28 4.1376Z" fill="#F7F5F2"/>
<path d="M38.7572 2.3718V2.712L35.5982 10.488H32.5202L30.4142 5.3364L28.3244 10.488H25.2626L22.0874 2.712V2.3718H24.5984L26.8016 8.2686L29.1992 2.3718H31.613L34.0592 8.3658L36.3596 2.3718H38.7572Z" fill="#F7F5F2"/>
<path d="M50.4212 19.824C47.3972 19.824 45.1012 19.2827 43.5332 18.2C41.9652 17.1173 41.1812 15.5307 41.1812 13.44V13.16H45.3252V13.44C45.3252 14.336 45.7732 15.0173 46.6692 15.484C47.5652 15.9507 48.8719 16.184 50.5892 16.184C52.1199 16.184 53.2772 16.0253 54.0612 15.708C54.8639 15.372 55.2652 14.8867 55.2652 14.252V14.056C55.2652 13.552 55.0412 13.1693 54.5932 12.908C54.1452 12.628 53.3519 12.404 52.2132 12.236L47.5372 11.564C43.5052 10.9667 41.4892 9.30533 41.4892 6.58V6.3C41.4892 4.564 42.2452 3.21067 43.7572 2.24C45.2879 1.26933 47.4252 0.784 50.1692 0.784C53.0812 0.784 55.3026 1.30667 56.8332 2.352C58.3639 3.39733 59.1292 4.90933 59.1292 6.888V7.14H54.9852V6.888C54.9852 5.24533 53.3799 4.424 50.1692 4.424C48.7319 4.424 47.6306 4.57333 46.8652 4.872C46.1186 5.17067 45.7452 5.60933 45.7452 6.188V6.412C45.7452 6.84133 45.9506 7.17733 46.3612 7.42C46.7906 7.66267 47.5186 7.85867 48.5452 8.008L53.2492 8.68C55.3959 8.99733 56.9732 9.576 57.9812 10.416C59.0079 11.2373 59.5212 12.3853 59.5212 13.86V14.14C59.5212 15.932 58.7279 17.332 57.1412 18.34C55.5546 19.3293 53.3146 19.824 50.4212 19.824Z" fill="#F7F5F2"/>
<path d="M69.6708 9.044V14.364C69.6708 14.868 69.8108 15.26 70.0908 15.54C70.3895 15.8013 70.8095 15.932 71.3508 15.932H74.6548V19.488H70.8188C69.2135 19.488 67.9441 19.0587 67.0108 18.2C66.0775 17.3227 65.6108 16.1373 65.6108 14.644V9.044H60.9348V5.46H64.6868C65.0788 5.46 65.3495 5.38533 65.4988 5.236C65.6481 5.08667 65.7228 4.816 65.7228 4.424V1.736H69.6708V5.46H75.4948V9.044H69.6708Z" fill="#F7F5F2"/>
<path d="M93.5697 5.46V19.488H89.7897L89.6777 18.144C88.4457 19.2267 86.8683 19.7867 84.9457 19.824C82.5377 19.8427 80.699 19.2267 79.4297 17.976C78.179 16.7067 77.5537 14.84 77.5537 12.376V5.46H81.6137V12.376C81.6137 13.5893 81.9403 14.5227 82.5937 15.176C83.2657 15.8107 84.2363 16.128 85.5057 16.128C86.383 16.128 87.1763 15.932 87.8857 15.54C88.595 15.1293 89.1363 14.5787 89.5097 13.888V5.46H93.5697Z" fill="#F7F5F2"/>
<path d="M113.448 0V19.488H109.668L109.556 18.284C108.268 19.3107 106.635 19.824 104.656 19.824C103.032 19.824 101.623 19.5347 100.428 18.956C99.2333 18.3587 98.3093 17.5187 97.6559 16.436C97.0026 15.3347 96.6759 14.056 96.6759 12.6V12.32C96.6759 10.864 96.9933 9.59467 97.6279 8.512C98.2813 7.42933 99.2053 6.59867 100.4 6.02C101.613 5.42267 103.032 5.124 104.656 5.124C106.504 5.124 108.081 5.6 109.388 6.552V0H113.448ZM105.244 16.128C106.121 16.128 106.924 15.988 107.652 15.708C108.38 15.4093 108.959 15.0173 109.388 14.532V10.388C108.977 9.90267 108.399 9.52 107.652 9.24C106.924 8.96 106.121 8.82 105.244 8.82C103.863 8.82 102.789 9.128 102.024 9.744C101.259 10.36 100.876 11.2187 100.876 12.32V12.6C100.876 13.72 101.259 14.588 102.024 15.204C102.789 15.82 103.863 16.128 105.244 16.128Z" fill="#F7F5F2"/>
<path d="M134.475 5.46V6.048L127.055 20.888C126.457 22.064 125.72 22.9133 124.843 23.436C123.966 23.9773 122.79 24.248 121.315 24.248H117.647V20.692H121.119C121.623 20.692 122.015 20.6267 122.295 20.496C122.593 20.384 122.846 20.16 123.051 19.824L116.023 6.048V5.46H120.335L125.291 15.568L130.163 5.46H134.475Z" fill="#F7F5F2"/>
</svg>
