<svg width="21" height="21" viewBox="0 0 21 21" fill="none" xmlns="http://www.w3.org/2000/svg">
<g clip-path="url(#clip0_153_331)">
<path d="M9.49888 11.5011C8.47513 10.4773 7.70338 9.33107 7.19063 8.1682C7.08213 7.92232 7.14601 7.63445 7.33588 7.44457L8.05251 6.72882C8.63963 6.1417 8.63963 5.31132 8.12688 4.79857L7.09963 3.77132C6.41626 3.08795 5.30851 3.08795 4.62513 3.77132L4.05463 4.34182C3.40626 4.9902 3.13588 5.92557 3.31088 6.85307C3.74313 9.13945 5.07138 11.6428 7.21426 13.7857C9.35713 15.9286 11.8605 17.2568 14.1469 17.6891C15.0744 17.8641 16.0098 17.5937 16.6581 16.9453L17.2278 16.3757C17.9111 15.6923 17.9111 14.5846 17.2278 13.9012L16.2014 12.8748C15.6886 12.3621 14.8574 12.3621 14.3455 12.8748L13.5554 13.6658C13.3655 13.8557 13.0776 13.9196 12.8318 13.8111C11.6689 13.2974 10.5226 12.5248 9.49888 11.5011V11.5011Z" stroke="#4200FF" stroke-width="1.5" stroke-linecap="round" stroke-linejoin="round"/>
</g>
<defs>
<clipPath id="clip0_153_331">
<rect width="21" height="21" fill="white"/>
</clipPath>
</defs>
</svg>
