<svg width="24" height="24" viewBox="0 0 24 24" fill="none" xmlns="http://www.w3.org/2000/svg">
<path d="M20.4727 19.2422H19.9102V17.6602C19.9102 17.3689 19.6741 17.1328 19.3828 17.1328H19.1811C18.9533 15.1179 17.2389 13.5469 15.1641 13.5469H13.9336V12.9288C14.5168 12.5133 14.9612 11.9152 15.183 11.2188C16.3518 10.6434 17.0977 9.45497 17.0977 8.14139V8.09766C17.0977 8.00495 17.095 7.9127 17.0902 7.82087C18.114 7.51905 18.8555 6.57012 18.8555 5.46094C18.8555 4.10398 17.7515 3 16.3946 3C15.7223 3 15.0968 3.2675 14.6398 3.73445C13.8225 3.23762 12.8797 2.98179 11.8957 3.00105C10.5519 3.02798 9.29389 3.57864 8.35346 4.55152C7.41775 5.51951 6.90243 6.79445 6.90243 8.14143C6.90243 9.455 7.64834 10.6434 8.81706 11.2188C9.03893 11.9152 9.48334 12.5133 10.0665 12.9288V13.5469H8.13289C7.37612 13.5469 6.65075 13.7532 6.01502 14.1459C5.86811 14.0832 5.71405 14.0412 5.55645 14.0208L4.04678 5.45918C3.99622 5.17241 3.72282 4.98091 3.43587 5.0314C3.14907 5.08195 2.95754 5.35547 3.00809 5.64231L4.51773 14.2039C4.26918 14.3327 4.0536 14.5202 3.88844 14.756C3.61914 15.1406 3.51571 15.6071 3.59724 16.0695L3.71455 16.7347C3.76817 17.0388 3.89824 17.3167 4.08995 17.5482V19.2422H3.52745C3.23622 19.2422 3.00011 19.4783 3.00011 19.7695C3.00011 20.0608 3.23622 20.2969 3.52745 20.2969H10.3026C10.8029 20.2969 11.2733 20.4917 11.6272 20.8455C11.6276 20.8459 11.628 20.846 11.6284 20.8464C11.6762 20.894 11.7334 20.933 11.7983 20.9599C11.8635 20.9869 11.932 21 12 21C12.1372 21 12.2721 20.9465 12.3729 20.8455C12.7267 20.4917 13.1972 20.2969 13.6975 20.2969H20.4727C20.7639 20.2969 21 20.0608 21 19.7695C21 19.4783 20.7639 19.2422 20.4727 19.2422ZM16.3946 4.05469C17.17 4.05469 17.8008 4.68553 17.8008 5.46094C17.8008 6.04675 17.4389 6.55433 16.9224 6.76397C16.6891 5.89656 16.228 5.10368 15.5681 4.45691C15.5426 4.43184 15.5166 4.40727 15.4906 4.3828C15.7399 4.17288 16.057 4.05469 16.3946 4.05469ZM9.18757 7.92188C8.89634 7.92188 8.66023 8.15798 8.66023 8.44922V9.82924C8.21839 9.39134 7.95711 8.7883 7.95711 8.14139C7.95711 5.93217 9.73341 4.09923 11.9168 4.0555C13.0123 4.03363 14.0478 4.44359 14.8299 5.21013C15.6122 5.97696 16.043 7.00236 16.043 8.09766V8.14139C16.043 8.78827 15.7818 9.3913 15.3399 9.82921V8.44922C15.3399 8.15798 15.1038 7.92188 14.8125 7.92188H14.2754C13.5067 7.92188 12.8156 7.49473 12.4717 6.80714C12.3824 6.62848 12.1998 6.51563 12.0001 6.51563C11.8003 6.51563 11.6177 6.62848 11.5284 6.80714C11.1846 7.49473 10.4934 7.92188 9.72469 7.92188H9.18757ZM9.71491 10.207V8.97656H9.72469C10.6099 8.97656 11.4275 8.60468 12.0001 7.97071C12.5726 8.60468 13.3902 8.97656 14.2754 8.97656H14.2852V10.207C14.2852 11.4671 13.2601 12.4922 12.0001 12.4922C10.74 12.4922 9.71491 11.4671 9.71491 10.207ZM13.4063 14.6016H13.4917C13.2741 15.2154 12.6876 15.6563 12.0001 15.6563C11.3125 15.6563 10.726 15.2154 10.5084 14.6016H10.5938C10.885 14.6016 11.1212 14.3655 11.1212 14.0742V13.4293C11.4013 13.5058 11.696 13.5469 12.0001 13.5469C12.3042 13.5469 12.5988 13.5058 12.879 13.4293V14.0742C12.879 14.3655 13.1151 14.6016 13.4063 14.6016ZM4.75324 16.5516L4.63592 15.8863C4.6033 15.7014 4.64468 15.5148 4.75236 15.361C4.86008 15.2071 5.02127 15.1044 5.20622 15.0718C5.2475 15.0645 5.28881 15.0609 5.32983 15.0609C5.47274 15.0609 5.6121 15.1045 5.73163 15.1883C5.88551 15.296 5.98816 15.4572 6.02079 15.6421L6.13811 16.3074C6.20543 16.6892 5.94956 17.0546 5.56777 17.1219C5.38278 17.1545 5.19624 17.1132 5.0424 17.0055C4.88852 16.8978 4.78586 16.7366 4.75324 16.5516ZM11.4727 19.4845C11.1085 19.3256 10.7119 19.2422 10.3026 19.2422H5.14463V18.1875H10.5938C11.0784 18.1875 11.4727 18.5818 11.4727 19.0664V19.4845ZM12.0001 17.7414C11.6472 17.3671 11.1475 17.1328 10.5938 17.1328H7.05578C7.19029 16.8261 7.23916 16.4781 7.17675 16.1243L7.05944 15.459C7.02351 15.2552 6.95341 15.0629 6.85339 14.8885C7.25002 14.6998 7.68392 14.6015 8.13286 14.6015H9.41637C9.66134 15.8036 10.7267 16.7109 12 16.7109C13.2734 16.7109 14.3387 15.8036 14.5837 14.6015H15.1641C16.6564 14.6015 17.8967 15.7012 18.1174 17.1328H13.4063C12.8526 17.1328 12.3529 17.3671 12.0001 17.7414ZM18.8555 19.2422H13.6975C13.2882 19.2422 12.8916 19.3256 12.5274 19.4845V19.0664C12.5274 18.5818 12.9217 18.1875 13.4063 18.1875H18.8555V19.2422Z" fill="#4200FF"/>
</svg>
